<svg width="22" height="22" viewBox="0 0 22 22" fill="none" xmlns="http://www.w3.org/2000/svg">
<path d="M11 1.83325C6.03077 1.83325 1.83335 6.03159 1.83335 10.9999C1.83335 15.9683 6.03077 20.1666 11 20.1666C15.9693 20.1666 20.1667 15.9683 20.1667 10.9999C20.1667 6.03159 15.9693 1.83325 11 1.83325ZM11 13.7499C11.9094 13.7499 12.6959 13.507 13.1019 13.1009L14.3981 14.398C13.3659 15.4293 11.8259 15.5833 11 15.5833C8.47277 15.5833 6.41669 13.5272 6.41669 10.9999C6.41669 8.47267 8.47277 6.41659 11 6.41659C11.8259 6.41659 13.3669 6.57059 14.3981 7.60184L13.1019 8.898C12.6968 8.49192 11.9103 8.24992 11 8.24992C9.50952 8.24992 8.25002 9.50942 8.25002 10.9999C8.25002 12.4904 9.50952 13.7499 11 13.7499Z" fill="#928A97"/>
</svg>
