<svg width="420" height="329" viewBox="0 0 520 429" fill="none" xmlns="http://www.w3.org/2000/svg">
<path d="M310.381 191.387C310.08 191.387 309.779 191.275 309.554 191.049C309.328 190.823 309.215 190.541 309.196 190.221L307.842 2.08786C307.842 1.44834 308.35 0.90286 309.008 0.90286L433.828 0C434.129 0 434.43 0.112857 434.656 0.338572C434.882 0.564287 434.995 0.846431 435.013 1.16619L436.386 189.281C436.386 189.92 435.879 190.466 435.22 190.466L310.381 191.387C310.4 191.387 310.4 191.387 310.381 191.387ZM310.193 3.25406L311.547 189.017L434.016 188.115L432.662 2.3512L310.193 3.25406Z" fill="#C2AC96"/>
<path d="M309.196 28.6659C308.557 28.6659 308.03 28.1393 308.03 27.4997C308.03 26.8602 308.557 26.3147 309.196 26.3147L433.17 25.4119C433.81 25.4119 434.336 25.9385 434.336 26.5781C434.336 27.2176 433.81 27.7631 433.17 27.7631L309.196 28.6659C309.215 28.6659 309.196 28.6659 309.196 28.6659Z" fill="#C2AC96"/>
<path d="M371.08 190.447C370.44 190.447 369.913 189.92 369.913 189.281L368.728 27.0671C368.728 26.4276 369.236 25.8821 369.895 25.8821C370.534 25.8821 371.061 26.4087 371.061 27.0483L372.246 189.262C372.265 189.902 371.738 190.447 371.08 190.447Z" fill="#C2AC96"/>
<path d="M457.209 123.033C456.569 123.033 456.043 122.507 456.043 121.867L455.93 106.5C455.93 105.86 456.457 105.315 457.096 105.315C457.736 105.315 458.262 105.841 458.262 106.481L458.375 121.848C458.394 122.507 457.867 123.033 457.209 123.033C457.228 123.033 457.228 123.033 457.209 123.033Z" fill="#C2AC96"/>
<path d="M497.142 140.695C496.502 140.695 495.976 140.169 495.976 139.529L495.863 124.162C495.863 123.522 496.389 122.977 497.029 122.977C497.668 122.977 498.195 123.503 498.195 124.143L498.308 139.51C498.327 140.169 497.8 140.695 497.142 140.695C497.161 140.695 497.142 140.695 497.142 140.695Z" fill="#C2AC96"/>
<path d="M443.271 124.426C442.631 124.426 442.105 123.899 442.105 123.259C442.105 122.62 442.631 122.074 443.271 122.074L520.804 121.51C521.444 121.51 521.97 122.037 521.97 122.676C521.97 123.316 521.444 123.861 520.804 123.861L443.271 124.426Z" fill="#C2AC96"/>
<path d="M464.413 140.94C463.773 140.94 463.247 140.413 463.247 139.774C463.247 139.134 463.773 138.589 464.413 138.589L519.901 138.175C520.541 138.175 521.067 138.702 521.067 139.341C521.067 139.981 520.541 140.526 519.901 140.526L464.413 140.94Z" fill="#C2AC96"/>
<path d="M133.289 230.568C132.649 230.568 132.123 230.041 132.123 229.401L132.01 214.034C132.01 213.394 132.536 212.849 133.176 212.849C133.816 212.849 134.342 213.376 134.342 214.015L134.455 229.383C134.474 230.041 133.947 230.568 133.289 230.568Z" fill="#C2AC96"/>
<path d="M93.6194 248.813C92.9799 248.813 92.4532 248.286 92.4532 247.647L92.3403 232.279C92.3403 231.64 92.8482 231.094 93.5065 231.094C94.146 231.094 94.6727 231.621 94.6727 232.26L94.7856 247.628C94.8044 248.286 94.2777 248.813 93.6194 248.813Z" fill="#C2AC96"/>
<path d="M69.7313 232.317C69.0918 232.317 68.5652 231.79 68.5652 231.151C68.5652 230.511 69.073 229.966 69.7313 229.966L147.264 229.401C147.904 229.401 148.431 229.928 148.431 230.568C148.431 231.207 147.923 231.753 147.264 231.753L69.7313 232.317Z" fill="#C2AC96"/>
<path d="M70.8789 248.982C70.2393 248.982 69.7127 248.456 69.7127 247.816C69.7127 247.176 70.2205 246.631 70.8789 246.631L126.367 246.217C127.007 246.217 127.533 246.744 127.533 247.383C127.533 248.023 127.007 248.568 126.367 248.568L70.8789 248.982Z" fill="#C2AC96"/>
<path d="M495.557 413.936C495.614 420.896 384.712 427.348 247.873 428.344C111.033 429.341 0.0565113 424.507 8.25596e-05 417.548C-0.0563462 410.588 110.845 404.137 247.685 403.14C384.524 402.143 495.501 406.977 495.557 413.936Z" fill="#C2AC96"/>
<path d="M306.295 368.643L306.633 415.31L326.007 415.178L336.785 375.414L340.773 360.687L306.295 368.643Z" fill="#731F07"/>
<g opacity="0.5">
<g opacity="0.5">
<g opacity="0.5">
<g opacity="0.5">
<g opacity="0.5">
<path opacity="0.5" d="M306.295 368.643L306.389 380.549C315.173 379.515 327.681 377.201 336.785 375.414L340.773 360.687L306.295 368.643Z" fill="#731F07"/>
</g>
</g>
</g>
</g>
</g>
<path d="M197.181 369.433L197.519 416.118L178.164 416.25L166.803 376.656L162.59 361.984L197.181 369.433Z" fill="#731F07"/>
<g opacity="0.5">
<g opacity="0.5">
<g opacity="0.5">
<g opacity="0.5">
<g opacity="0.5">
<path opacity="0.5" d="M197.181 369.433L197.275 381.339C188.49 380.418 175.945 378.292 166.803 376.656L162.59 361.984L197.181 369.433Z" fill="#731F07"/>
</g>
</g>
</g>
</g>
</g>
<path d="M122.319 107.246C124.162 125.247 139.755 190.685 147.599 222.944C148.389 226.16 149.085 229.038 149.687 231.521C151.173 237.559 152.057 241.17 152.057 241.17L314.948 236.562C314.948 236.562 315.38 234.474 316.152 230.769C321.776 203.457 344.968 88.2861 338.535 77.1132C338.084 76.3232 337.425 75.552 336.56 74.7996C335.958 74.2541 335.243 73.7275 334.453 73.2008C333.663 72.6741 332.76 72.1663 331.782 71.6584C319.951 65.5265 295.329 60.5231 267.378 57.6641C234.424 54.2784 196.861 53.9022 170.246 58.1719C169.493 58.2848 168.741 58.4165 167.989 58.5481C166.051 58.8867 164.189 59.2253 162.402 59.5827C127.51 66.4482 120.814 76.0222 120.701 89.4899V89.5087C120.682 94.7942 121.642 100.682 122.319 107.246Z" fill="#A5410F"/>
<path d="M313.688 201.67C314.026 201.67 314.327 201.426 314.384 201.087C314.44 200.805 319.387 172.384 323.356 143.511C325.688 126.545 327.212 112.72 327.908 102.468C329.093 84.8439 327.569 81.3453 326.328 80.2356C319.124 73.8591 282.069 69.2132 260.626 67.0124C250.356 65.9591 239.898 65.677 229.534 66.1848C204.762 67.3886 162.139 70.417 154.954 77.132C153.75 78.2606 152.32 81.8156 154.013 99.4025C154.991 109.654 156.929 123.404 159.731 140.313C164.509 169.073 170.284 197.344 170.34 197.626C170.415 198.002 170.792 198.247 171.168 198.172C171.544 198.096 171.788 197.72 171.713 197.344C171.657 197.062 165.901 168.829 161.123 140.088C152.772 89.8096 154.277 79.7277 155.913 78.1853C160.916 73.5017 187.758 69.6458 229.59 67.6143C239.879 67.1065 250.262 67.3886 260.457 68.442C281.73 70.6239 318.465 75.2134 325.369 81.3265C327.061 82.8125 328.848 92.8568 321.945 143.342C317.995 172.196 313.048 200.598 312.992 200.88C312.917 201.256 313.18 201.633 313.575 201.708C313.594 201.67 313.65 201.67 313.688 201.67Z" fill="#731F07"/>
<path d="M120.72 89.49C120.833 94.4369 121.68 99.8729 122.3 105.873C124.144 123.874 139.737 189.312 147.581 221.571L174.196 221.383C174.196 221.383 144.063 114.526 142.145 88.2109C140.884 71.0378 153.506 63.0625 162.421 59.5828C127.529 66.4483 120.833 76.0223 120.72 89.49Z" fill="#731F07"/>
<path d="M316.095 232.838C316.095 232.838 343.482 229.979 345.795 239.872C347.601 247.603 345.758 316.898 344.874 347.012C344.629 354.912 350.761 361.533 358.661 361.928C360.41 362.022 362.235 362.078 364.135 362.135C373.22 362.398 383.509 362.191 390.562 360.536C405.911 356.943 406.249 335.124 411.441 298.897C416.632 262.67 421.128 198.172 387.308 186.021C386.142 185.607 384.976 185.231 383.81 184.873C351.25 175.28 320.421 194.936 320.421 194.936C313.067 215.721 316.095 232.838 316.095 232.838Z" fill="#731F07"/>
<path d="M364.116 362.134C373.201 362.398 383.49 362.191 390.543 360.536C405.892 356.943 406.231 335.124 411.422 298.897C416.613 262.669 421.109 198.171 387.289 186.02C386.123 185.607 384.957 185.23 383.791 184.873C378.054 186.284 372.806 190.14 370.022 198.529C362.461 221.326 375.308 300.176 364.116 362.134Z" fill="#A5410F"/>
<path d="M382.023 356.586C389.02 356.529 394.456 353.595 397.748 348.084C402.883 339.45 409.861 265.585 410.162 262.444C410.199 262.068 409.917 261.71 409.522 261.673C409.146 261.635 408.789 261.917 408.751 262.312C408.676 263.084 401.509 338.999 396.525 347.369C388.963 360.066 372.035 353.445 371.866 353.388C371.508 353.238 371.094 353.426 370.963 353.783C370.812 354.141 371 354.554 371.358 354.686C371.546 354.761 375.928 356.492 381.383 356.586C381.609 356.586 381.816 356.586 382.023 356.586Z" fill="#731F07"/>
<path d="M378.468 211.263C378.468 211.263 378.919 198.868 388.286 199.789C397.634 200.711 398.236 221.138 389.904 223.847C377.696 227.797 378.468 211.263 378.468 211.263Z" fill="#731F07"/>
<path d="M399.967 207.407C400.023 207.407 400.061 207.407 400.117 207.388C400.494 207.294 400.738 206.918 400.644 206.542C400.531 206.091 397.954 195.237 388.888 193.15C385.22 192.303 381.966 192.98 379.22 195.181C375.251 198.36 373.446 204.059 373.464 206.899C373.464 207.294 373.784 207.595 374.16 207.595C374.555 207.595 374.856 207.276 374.856 206.899C374.837 204.68 376.361 199.263 380.085 196.291C382.474 194.372 385.333 193.789 388.55 194.541C396.769 196.441 399.233 206.787 399.252 206.881C399.346 207.2 399.628 207.407 399.967 207.407Z" fill="#731F07"/>
<path d="M125.441 229.602C127.247 236.957 128.338 241.34 128.338 241.34L326.459 235.734C326.459 235.734 326.985 233.195 327.907 228.7C292.752 222.981 172.258 225.878 125.441 229.602Z" fill="#731F07"/>
<path d="M127.284 267.015C127.359 270.758 127.472 274.708 127.623 278.808C128.996 315.732 133.868 364.392 149.912 368.53C176.039 375.302 337.876 377.653 346.209 362.135C348.692 357.508 350.215 349.721 351.175 340.203C351.363 338.341 351.532 336.403 351.664 334.428C352.924 317.218 352.792 295.812 353.225 277.172C353.338 272.169 353.507 267.353 353.751 262.877C355.52 229.998 328.772 229.734 328.772 229.734C290.946 229.132 235.42 231.295 192.215 233.44C169.7 234.55 150.533 235.659 138.984 236.355C131.554 236.807 127.284 237.07 127.284 237.07C127.284 237.07 126.927 249.635 127.284 267.015Z" fill="#A5410F"/>
<path d="M254.569 341.388C257.823 341.369 261.19 341.313 264.669 341.219C316.885 339.77 346.848 327.807 347.149 327.676C347.582 327.488 347.808 326.998 347.62 326.547C347.432 326.114 346.942 325.889 346.491 326.077C346.19 326.19 316.49 338.059 264.613 339.488C212.68 340.918 184.089 333.732 183.807 333.676C183.337 333.563 182.885 333.826 182.754 334.297C182.641 334.748 182.904 335.218 183.374 335.35C183.638 335.406 208.767 341.726 254.569 341.388Z" fill="#731F07"/>
<path d="M127.284 267.015C127.36 270.758 127.472 274.708 127.623 278.809C128.996 315.732 133.868 364.392 149.912 368.53C176.039 375.302 337.876 377.653 346.209 362.135C348.692 357.508 350.215 349.721 351.175 340.203C351.363 338.341 351.532 336.403 351.664 334.428C344.027 339.601 321.042 346.485 305.223 348.216C239.277 355.458 187.851 346.617 187.851 346.617C196.259 310.822 193.532 253.792 192.196 233.402C169.681 234.512 150.514 235.622 138.965 236.318L127.284 267.015Z" fill="#731F07"/>
<path d="M321.267 237.916C319.349 239.665 317.205 241.321 314.816 242.882C314.74 242.938 314.665 242.976 314.59 243.032C312.916 244.123 311.148 245.139 309.286 246.117C308.609 246.475 307.931 246.813 307.254 247.133C301.818 249.766 295.668 251.948 289.065 253.528C288.463 253.679 287.862 253.81 287.241 253.942C285.492 254.337 283.705 254.675 281.899 254.976C281.297 255.089 280.676 255.183 280.074 255.277C273.096 256.331 265.779 256.726 258.406 256.331C257.541 256.274 256.675 256.237 255.81 256.161C253.496 255.992 251.183 255.729 248.888 255.371C248.832 255.371 248.775 255.353 248.719 255.353C248.023 255.24 247.327 255.146 246.631 255.014C242.888 254.375 239.182 253.491 235.533 252.381C232.355 251.421 229.213 250.274 226.147 248.92C225.621 248.694 225.113 248.45 224.586 248.224C223.947 247.923 223.288 247.622 222.668 247.302C222.611 247.283 222.555 247.246 222.479 247.208C218.793 236.769 214.993 199.639 213.978 188.522C213.771 186.303 213.62 184.102 213.489 181.882C213.47 181.506 213.451 181.111 213.432 180.735C213.394 180.152 213.376 179.588 213.357 179.005C213.188 174.961 213.15 170.898 213.188 166.778C213.188 166.12 213.206 165.443 213.225 164.785C213.225 164.465 213.225 164.126 213.244 163.806C213.244 163.769 213.244 163.712 213.244 163.675C213.263 163.205 213.263 162.734 213.282 162.245C213.394 157.994 213.583 153.687 213.827 149.304C213.846 148.89 213.865 148.495 213.902 148.082C213.921 147.875 213.921 147.668 213.94 147.461C214.09 144.903 214.26 142.307 214.448 139.693C214.467 139.298 214.504 138.884 214.542 138.47C214.561 138.319 214.561 138.169 214.579 138.019C215.031 131.736 215.539 125.266 216.028 118.532C216.291 114.845 216.761 111.422 217.382 108.281C217.457 107.886 217.533 107.509 217.627 107.133C218.906 101.321 220.787 96.5246 223.307 92.8379C223.514 92.5182 223.74 92.1984 223.965 91.8974C224.793 90.7877 225.677 89.8096 226.618 88.9443C227.539 88.0979 228.517 87.3455 229.571 86.706C231.527 85.521 233.671 84.7498 236.022 84.3924C238.242 84.0727 240.255 83.6212 242.098 83.1134C242.436 83.0193 242.775 82.9253 243.095 82.8312C244.129 82.5303 245.107 82.1917 246.029 81.8531C246.499 81.665 246.97 81.4957 247.402 81.3076C247.76 81.1572 248.117 81.0067 248.456 80.8562C248.606 80.781 248.775 80.7246 248.926 80.6493C249.057 80.5929 249.208 80.5177 249.34 80.4612C249.584 80.3484 249.81 80.2355 250.036 80.1227C253.816 78.2417 255.961 76.5488 255.961 76.5488L281.955 76.8122C282.162 77.1131 282.369 77.3953 282.557 77.6774C282.576 77.6962 282.595 77.715 282.595 77.7338C283.611 79.0693 284.739 80.1979 285.943 81.1572C286.244 81.4017 286.564 81.6274 286.883 81.8531C287.467 82.2669 288.068 82.6431 288.689 83.0005C289.122 83.245 289.554 83.4708 289.968 83.6777C290.307 83.8469 290.645 83.9974 290.984 84.1479C291.078 84.1855 291.172 84.2419 291.266 84.2796C291.529 84.3924 291.774 84.5053 292.037 84.5993C292.169 84.6558 292.319 84.7122 292.451 84.7686C293.166 85.0508 293.881 85.2953 294.595 85.5398C294.614 85.5398 294.614 85.5398 294.633 85.5398C300.314 87.4208 306.107 88.3612 309.718 92.0103C310.095 92.3865 310.433 92.8003 310.772 93.2329C311.298 93.9477 311.769 94.7565 312.145 95.6594C312.521 96.5622 312.822 97.5779 313.029 98.7065C313.16 99.346 313.217 100.023 313.236 100.776C313.367 106.494 310.866 115.917 309.699 131.435C309.662 131.887 309.624 132.319 309.605 132.789C309.436 135.291 309.304 137.924 309.21 140.746C309.192 141.16 309.192 141.592 309.173 142.006C309.135 143.511 309.116 145.072 309.116 146.671C309.116 147.499 309.116 148.326 309.116 149.173C309.135 150.828 309.173 152.521 309.21 154.27C309.229 154.797 309.248 155.323 309.267 155.85C309.304 156.922 309.342 158.013 309.417 159.123C309.455 159.706 309.493 160.308 309.511 160.891C309.53 161.305 309.568 161.719 309.587 162.132C309.587 162.264 309.605 162.396 309.605 162.509C309.737 164.54 309.888 166.647 310.094 168.791C310.094 168.904 310.113 169.017 310.132 169.13C310.151 169.412 310.189 169.713 310.207 169.995C310.358 171.706 310.546 173.475 310.753 175.261C310.997 177.406 311.242 179.606 311.543 181.864C312.728 190.855 315.418 208.686 318.295 223.677C318.747 226.047 319.198 228.323 319.65 230.486C319.706 230.712 319.744 230.938 319.8 231.164C320.252 233.609 320.76 235.885 321.267 237.916Z" fill="white"/>
<path d="M327.023 138.601C320.722 138.601 314.665 136.438 309.549 132.808C309.53 132.789 309.492 132.77 309.474 132.752C308.514 132.074 307.612 131.341 306.746 130.588C298.489 123.366 294.087 112.851 292.263 102.111C291.379 96.8817 290.514 90.3172 291.228 84.2793C291.492 84.3922 291.736 84.505 292 84.5991C292.131 84.6555 292.282 84.7119 292.413 84.7683C292.301 85.7276 292.263 86.6869 292.244 87.6462C292.018 99.2705 294.294 111.854 300.614 121.748C302.326 124.438 304.433 126.939 306.803 129.103C307.706 129.93 308.665 130.72 309.643 131.435C314.665 135.14 320.647 137.435 327.023 137.435C327.757 137.454 327.757 138.601 327.023 138.601Z" fill="#D7C4AC"/>
<path d="M286.827 81.8718C284.344 86.1227 281.504 90.148 278.231 93.8346C268.45 104.895 254.644 112.757 239.728 113.434C239.408 113.453 239.07 113.472 238.75 113.472C231.282 113.66 223.815 111.854 217.307 108.299C213.733 106.362 210.479 103.879 207.658 100.926C207.921 100.663 208.203 100.399 208.466 100.136C211.1 102.92 214.185 105.29 217.533 107.152C219.094 108.017 220.712 108.788 222.386 109.447C228.066 111.685 234.01 112.531 239.935 112.212C248.305 111.779 256.6 109.014 263.823 104.556C273.134 98.838 280.432 90.5242 285.887 81.1382C286.206 81.4203 286.507 81.646 286.827 81.8718Z" fill="#D7C4AC"/>
<path d="M271.8 102.205C266.289 102.149 261.248 98.6689 257.091 92.0291C253.536 86.3486 251.881 80.4236 251.825 80.179C251.674 79.6524 251.994 79.1257 252.502 78.9752C253.028 78.8248 253.555 79.1445 253.706 79.6524C253.762 79.8781 260.214 102.638 274.152 100.042C277.801 99.3648 280.49 97.6719 282.183 95.001C285.87 89.17 283.669 80.5552 283.65 80.48C283.519 79.9533 283.82 79.4267 284.346 79.295C284.873 79.1633 285.4 79.4643 285.531 79.9909C285.625 80.3859 287.958 89.5086 283.82 96.0543C281.826 99.1955 278.703 101.189 274.509 101.961C276 119 272.684 102.224 271.8 102.205Z" fill="#1D1A16"/>
<path d="M319.876 145.862C319.312 146.031 318.766 146.201 318.202 146.351C317.487 146.031 316.791 145.693 316.076 145.354C313.763 144.263 311.449 143.153 309.136 142.025C308.139 141.536 307.161 141.066 306.164 140.577C288.953 132.206 271.291 123.874 251.804 124.099C245.785 124.175 239.916 125.153 234.368 127.109C229.872 128.689 225.584 130.908 221.596 133.767C219.057 135.592 216.668 137.605 214.392 139.749C212.059 141.912 209.859 144.226 207.733 146.596C207.319 146.483 206.924 146.351 206.529 146.219C209.069 143.379 211.702 140.633 214.524 138.075C217.42 135.442 220.505 132.996 223.853 130.871C227.502 128.557 231.32 126.808 235.233 125.567C252.086 120.206 270.839 124.024 287.185 130.645C293.637 133.26 299.957 136.288 306.258 139.335C307.236 139.805 308.195 140.276 309.173 140.746C312.709 142.495 316.283 144.207 319.876 145.862Z" fill="#D7C4AC"/>
<path d="M309.549 162.151C306.803 161.587 304.075 161.004 301.329 160.42C291.548 158.37 281.767 156.245 271.967 154.307C262.45 152.426 252.725 150.94 242.982 151.58C232.279 152.276 220.937 156.264 213.206 163.825C213.206 163.787 213.206 163.731 213.206 163.693C213.225 163.223 213.225 162.753 213.244 162.264C215.275 160.383 217.514 158.728 219.902 157.279C236.041 147.611 255.359 149.831 272.983 153.348C285.172 155.775 297.323 158.333 309.474 160.91C309.492 161.323 309.511 161.737 309.549 162.151Z" fill="#D7C4AC"/>
<path d="M249.528 190.065C247.966 197.984 244.468 205.846 240.951 213.069C237.377 220.405 232.9 227.308 226.975 232.969C226.448 233.477 225.621 232.668 226.166 232.161C232.26 226.348 236.775 219.201 240.386 211.639C243.509 205.094 246.537 198.096 248.173 191.005C249.81 183.97 249.246 175.769 242.474 171.613C236.831 168.17 229.458 168.603 223.759 171.631C219.62 173.832 216.272 177.067 213.432 180.735C213.394 180.152 213.376 179.588 213.357 179.005C216.761 174.848 220.862 171.293 225.94 169.374C231.828 167.136 239.164 167.587 244.28 171.462C250.092 175.882 250.863 183.369 249.528 190.065Z" fill="#D7C4AC"/>
<path d="M291.116 235.847C282.482 230.336 274.751 223.452 268.356 215.439C259.139 203.908 246.462 182.804 263.409 171.932C270.519 167.361 279.567 166.383 287.805 166.27C295.31 166.158 302.778 167.079 310.038 168.829C310.038 168.941 310.057 169.054 310.076 169.167C310.094 169.449 310.132 169.75 310.151 170.032C302.157 168.076 293.918 167.136 285.68 167.474C277.836 167.794 269.165 168.96 262.694 173.813C255.265 179.4 255.001 188.485 258.161 196.592C261.302 204.623 266.682 212.053 272.381 218.448C278.024 224.787 284.532 230.298 291.699 234.869C292.319 235.245 291.755 236.242 291.116 235.847Z" fill="#D7C4AC"/>
<path d="M206.36 128.52C202.372 131.811 196.974 132.15 192.177 130.589C190.522 130.043 188.961 129.31 187.494 128.445C187.701 128.087 187.908 127.73 188.096 127.372C193.344 130.57 199.231 132.075 204.78 128.275C209.388 125.134 210.065 119.566 207.545 114.808C206.059 112.024 203.745 109.898 201.206 108.055C201.451 107.754 201.695 107.472 201.921 107.19C204.912 109.39 207.62 111.967 209.125 115.447C211.138 120.074 210.329 125.247 206.36 128.52Z" fill="#D7C4AC"/>
<path d="M341.751 135.479C341.394 135.724 340.999 135.968 340.566 136.25C334.829 134.031 329.656 130.306 325.819 125.397C320.12 118.099 317.731 108.6 318.916 99.4963C319.255 99.8161 319.612 100.155 319.951 100.493C319.048 109.033 321.38 117.854 326.703 124.682C330.597 129.648 335.882 133.354 341.751 135.479Z" fill="#D7C4AC"/>
<path d="M241.741 96.2801C240.706 96.788 239.634 97.1454 238.562 97.3711C234.442 98.2551 230.06 97.3147 226.392 95.1328C225.263 94.4556 224.21 93.6844 223.251 92.838C222.423 92.1044 221.633 91.2956 220.918 90.4492C221.257 90.2611 221.596 90.0542 221.915 89.8849C222.536 90.5997 223.194 91.2768 223.909 91.9163C224.699 92.6123 225.527 93.2518 226.43 93.8161C229.891 96.0168 234.123 97.1078 238.11 96.3178C239.145 96.1109 240.179 95.7723 241.176 95.302C246.161 92.8944 248.568 87.8158 247.59 82.4175C247.534 82.0601 247.44 81.7027 247.365 81.3642C247.722 81.2137 248.079 81.0632 248.418 80.9127C248.644 81.778 248.813 82.662 248.907 83.5837C249.396 88.982 246.631 93.9101 241.741 96.2801Z" fill="#D7C4AC"/>
<path d="M233.614 293.705C233.614 293.705 231.676 294.533 228.535 295.944C227.632 296.339 226.654 296.79 225.582 297.279C224.153 297.919 222.61 298.633 220.936 299.423C219.996 299.856 218.999 300.326 218.002 300.796C205.475 306.721 189.016 315.186 182.96 321.205C182.527 321.637 182.132 322.051 181.737 322.465C172.614 332.058 171.806 338.754 169.53 337.945C167.16 337.099 165.504 331.795 168.1 327.487C169.906 324.515 170.752 320.565 173.028 315.976C173.649 314.734 174.364 313.455 175.248 312.139C179.123 306.308 185.913 299.649 189.487 294.909C189.712 294.608 189.938 294.307 190.126 294.006C193.004 289.868 192.891 282.664 199.042 279.109C202.051 277.379 206.001 276.908 209.951 277.078C210.647 277.096 211.362 277.153 212.058 277.209C213.093 277.303 214.127 277.435 215.124 277.585C216.497 277.792 217.814 278.056 219.018 278.319C220.184 278.582 221.237 278.846 222.159 279.09C224.378 279.692 225.77 280.181 225.77 280.181L233.614 293.705Z" fill="white"/>
<path d="M209.953 277.077C207.188 283.059 200.341 294.834 189.469 294.909C189.695 294.608 189.92 294.307 190.109 294.006C192.986 289.868 192.874 282.664 199.024 279.109C202.034 277.378 206.003 276.908 209.953 277.077Z" fill="#425045"/>
<path d="M181.72 322.465C172.597 332.058 171.788 338.754 169.512 337.945C167.142 337.099 165.487 331.795 168.083 327.487C169.888 324.515 170.735 320.565 173.011 315.976C176.096 317.274 179.5 319.324 181.72 322.465Z" fill="#425045"/>
<path d="M228.518 295.944C227.615 296.339 226.637 296.79 225.565 297.279C222.819 294.138 220.881 290.019 219.847 285.053C219.32 282.532 219.113 280.2 219.019 278.338C220.185 278.601 221.239 278.865 222.16 279.109C222.254 280.67 222.48 282.495 222.875 284.451C223.703 288.345 225.339 292.69 228.518 295.944Z" fill="#425045"/>
<path d="M215.126 277.585C214.129 277.435 213.113 277.303 212.06 277.209C211.834 279.184 211.608 282.457 212.003 286.181C212.643 292.2 214.693 297.166 217.985 300.796C219.001 300.326 219.979 299.856 220.919 299.423C214.204 292.84 214.656 281.817 215.126 277.585Z" fill="#425045"/>
<path d="M225.546 274.143C224.718 294.853 237.622 296.056 237.622 296.056C237.622 296.056 240.274 295.981 246.387 294.307C246.951 294.157 247.553 293.987 248.193 293.799C252.161 292.633 257.334 290.884 263.899 288.232C264.67 287.912 265.479 287.592 266.288 287.253C270.576 285.467 275.429 283.303 280.846 280.708C289.047 276.795 298.584 271.867 309.587 265.698C341.3 247.923 369.157 223.226 379.446 202.836C386.405 189.086 385.371 177.274 372.11 170.897C369.778 169.769 367.333 169.129 364.831 168.847C348.09 167.023 331.312 183.086 331.312 183.086C297.549 206.09 287.11 225.558 273.341 241.245C272.777 241.904 272.194 242.543 271.611 243.183C271.234 243.596 270.858 243.991 270.444 244.405C268.225 246.7 265.667 248.976 262.939 251.158C253.854 258.475 242.794 265.002 235.064 269.215C234.518 269.516 233.991 269.798 233.484 270.08C228.706 272.638 225.546 274.143 225.546 274.143Z" fill="#131E07"/>
<path d="M233.502 270.08C233.822 271.566 234.274 273.052 234.8 274.519C235.007 275.065 235.214 275.629 235.44 276.175C238.713 284.319 244.28 291.655 246.406 294.307C246.97 294.157 247.572 293.987 248.211 293.799C246.669 291.918 240.405 283.981 236.963 275.309C236.738 274.764 236.531 274.2 236.343 273.654C235.816 272.187 235.402 270.701 235.101 269.234C234.537 269.516 234.01 269.798 233.502 270.08Z" fill="#425045"/>
<path d="M379.465 202.836C364.323 189.745 363.74 176.108 364.831 168.866C367.333 169.13 369.778 169.788 372.11 170.898C385.371 177.274 386.424 189.068 379.465 202.836Z" fill="#425045"/>
<path d="M234.781 274.52C234.988 275.065 235.195 275.629 235.421 276.175C235.91 275.893 236.418 275.61 236.944 275.31C249.284 268.143 267.604 254.995 288.238 238.386C307.574 222.812 329.619 203.382 332.328 197.532C333.795 194.372 333.87 191.964 332.572 190.422C330.635 188.09 326.346 188.579 324.409 188.955C323.92 189.049 323.6 189.538 323.713 190.027C323.807 190.403 324.146 190.666 324.503 190.685C324.578 190.685 324.635 190.685 324.71 190.666C326.61 190.309 329.977 190.046 331.218 191.532C332.253 192.773 331.519 195.068 330.729 196.798C328.547 201.52 310.227 218.448 287.128 237.032C270.821 250.161 250.412 265.434 236.305 273.673C235.797 273.955 235.289 274.237 234.781 274.52Z" fill="#425045"/>
<path d="M229.515 270.72C232.712 280.952 237.114 290 244.336 296.263C244.336 296.263 239.916 300.815 234.819 299.009C230.925 297.636 221.201 282.476 222.254 273.278C224.925 271.134 227.37 270.118 229.515 270.72Z" fill="#425045"/>
<path d="M316.152 291.711C316.152 291.711 318.145 292.407 321.362 293.611C322.283 293.949 323.299 294.326 324.39 294.739C325.857 295.285 327.456 295.906 329.168 296.583C330.146 296.959 331.143 297.354 332.196 297.768C345.081 302.884 362.047 310.257 368.48 315.881C368.931 316.276 369.364 316.671 369.778 317.048C379.502 326.02 380.744 332.678 382.944 331.7C385.258 330.703 386.575 325.305 383.697 321.186C381.703 318.327 380.612 314.433 378.035 310.013C377.339 308.809 376.53 307.586 375.571 306.326C371.339 300.759 364.116 294.551 360.26 290.037C360.015 289.755 359.771 289.454 359.564 289.191C356.423 285.241 356.065 278.055 349.708 274.914C346.604 273.372 342.617 273.165 338.685 273.579C337.989 273.654 337.294 273.748 336.598 273.861C335.563 274.03 334.547 274.218 333.569 274.425C332.215 274.726 330.917 275.065 329.732 275.422C328.585 275.761 327.55 276.08 326.647 276.4C324.465 277.134 323.111 277.736 323.111 277.736L316.152 291.711Z" fill="white"/>
<path d="M338.685 273.579C341.845 279.372 349.407 290.677 360.279 290.056C360.034 289.774 359.79 289.473 359.583 289.209C356.442 285.259 356.084 278.074 349.727 274.933C346.604 273.372 342.617 273.165 338.685 273.579Z" fill="#425045"/>
<path d="M369.778 317.048C379.502 326.02 380.744 332.678 382.944 331.7C385.258 330.703 386.575 325.305 383.697 321.186C381.703 318.327 380.612 314.433 378.035 310.013C375.063 311.518 371.79 313.775 369.778 317.048Z" fill="#425045"/>
<path d="M321.381 293.611C322.302 293.949 323.318 294.326 324.409 294.739C326.948 291.429 328.622 287.197 329.337 282.156C329.694 279.616 329.77 277.265 329.713 275.403C328.566 275.742 327.531 276.061 326.628 276.381C326.628 277.942 326.534 279.786 326.252 281.742C325.707 285.711 324.352 290.15 321.381 293.611Z" fill="#425045"/>
<path d="M329.187 296.583C330.165 296.959 331.162 297.354 332.215 297.768C335.262 293.949 336.992 288.871 337.237 282.814C337.387 279.071 336.955 275.817 336.616 273.861C335.582 274.03 334.566 274.218 333.588 274.425C334.303 278.619 335.469 289.585 329.187 296.583Z" fill="#425045"/>
<path d="M164.866 212.617C177.224 231.822 206.887 252.004 238.543 267.183C268.733 281.648 287.674 288.457 298.602 291.674C298.96 291.786 299.317 291.88 299.674 291.975C307.856 294.307 311.148 294.495 311.148 294.495C311.148 294.495 323.939 292.464 321.794 271.848C321.794 271.848 317.995 268.914 312.314 264.531C311.825 264.155 311.317 263.76 310.81 263.365C299.994 255.033 283.592 242.411 272.852 234.154C242.757 211.018 239.991 212.372 212.247 189.65C212.247 189.65 194.773 174.339 178.842 175.412C175.381 175.637 171.995 176.503 168.891 178.252C155.424 185.832 155.8 198.51 164.866 212.617Z" fill="#131E07"/>
<path d="M298.621 291.655C298.659 291.711 298.697 291.768 298.753 291.805C298.885 291.918 299.035 291.993 299.186 292.031C299.355 292.069 299.524 292.05 299.694 291.975C299.788 291.937 299.9 291.862 299.976 291.768C305.976 285.391 309.512 275.178 311.224 269.008C311.393 268.387 311.544 267.804 311.694 267.278C311.995 266.093 312.202 265.133 312.334 264.531C311.845 264.155 311.337 263.76 310.829 263.365C310.81 263.403 310.81 263.422 310.81 263.459C310.81 263.497 310.584 264.644 310.114 266.45C309.982 266.977 309.832 267.56 309.663 268.18C308.007 274.162 304.528 284.394 298.753 290.564C298.433 290.884 298.396 291.316 298.621 291.655Z" fill="#425045"/>
<path d="M178.842 175.412C178.842 182.315 177.864 205.319 164.885 212.617C155.819 198.51 155.443 185.832 168.91 178.252C171.995 176.503 175.381 175.637 178.842 175.412Z" fill="#425045"/>
<path d="M212.134 198.059C215.2 203.739 238.449 221.702 258.763 235.998C278.946 250.218 296.947 261.56 309.643 268.181C310.189 268.463 310.715 268.726 311.223 268.99C311.393 268.369 311.543 267.786 311.694 267.259C311.167 266.996 310.64 266.714 310.114 266.431C295.668 258.832 275.861 245.873 259.779 234.549C235.552 217.489 216.16 201.783 213.677 197.212C212.774 195.557 211.909 193.3 212.849 192.002C213.978 190.441 217.364 190.478 219.282 190.704C219.32 190.704 219.357 190.704 219.395 190.704C219.809 190.704 220.166 190.403 220.241 189.989C220.335 189.5 219.997 189.03 219.489 188.955C217.533 188.71 213.225 188.503 211.439 190.949C210.235 192.623 210.46 195.011 212.134 198.059Z" fill="#425045"/>
<path d="M317.619 268.67C315.079 279.09 311.28 288.401 304.471 295.116C304.471 295.116 309.173 299.367 314.139 297.26C317.938 295.643 326.666 279.899 325.03 270.776C322.227 268.801 319.725 267.936 317.619 268.67Z" fill="#425045"/>
<path d="M355.952 180.246C351.57 190.761 341.281 190.404 330.164 174.453C323.732 165.217 318.089 155.587 313.668 147.461C311.957 144.32 310.452 141.405 309.135 138.828L309.305 123.592L328.133 111.479C328.133 111.479 334.98 122.125 341.977 135.291C350.648 151.581 359.526 171.688 355.952 180.246Z" fill="#E8A36F"/>
<path d="M287.674 202.761C297.173 196.272 308.835 188.635 313.462 184.497C324.841 174.302 344.817 157.975 355.257 166.007C355.257 166.007 363.909 182.823 349.764 193.939C336.297 204.529 306.088 216.323 292 220.818C290.364 214.856 288.501 208.893 287.674 202.761Z" fill="#E8A36F"/>
<path d="M328.698 172.948C328.848 172.948 328.998 172.892 329.13 172.779C334.416 168.189 341.921 165.349 341.996 165.311C342.353 165.18 342.541 164.766 342.41 164.408C342.278 164.051 341.864 163.863 341.507 163.995C341.187 164.107 333.682 166.967 328.208 171.707C327.908 171.97 327.889 172.402 328.133 172.703C328.265 172.892 328.491 172.967 328.698 172.948Z" fill="#B05935"/>
<path d="M329.845 172.008C330.183 171.989 330.466 171.744 330.503 171.406C330.955 168.246 334.905 165.18 334.942 165.142C335.243 164.898 335.3 164.465 335.074 164.145C334.829 163.844 334.397 163.769 334.077 164.014C333.889 164.145 329.638 167.475 329.093 171.199C329.036 171.594 329.299 171.951 329.694 171.989C329.751 172.008 329.807 172.008 329.845 172.008Z" fill="#B05935"/>
<path d="M343.839 134.05C343.839 134.05 343.2 134.52 342.015 135.31C341.939 135.366 341.845 135.423 341.77 135.479C341.413 135.724 341.018 135.968 340.585 136.25C339.231 137.097 337.5 138.131 335.469 139.241C335.149 139.411 334.811 139.599 334.472 139.768C330.522 141.856 325.519 144.132 319.895 145.862C319.33 146.031 318.785 146.201 318.22 146.351C318.108 146.389 318.014 146.408 317.901 146.445C317.524 146.558 317.167 146.652 316.772 146.746C315.775 147.01 314.741 147.254 313.706 147.461C312.634 147.687 311.543 147.894 310.452 148.063C310.452 148.063 309.944 147.574 309.079 146.69L309.173 138.827L309.342 123.592L309.7 92.0104C312.465 93.8537 315.587 96.299 318.935 99.4778C319.274 99.7975 319.631 100.136 319.97 100.475C321.587 102.073 323.28 103.842 324.992 105.798C325.255 106.099 325.5 106.381 325.763 106.682C328.566 109.936 331.462 113.717 334.397 118.08C334.66 118.457 334.905 118.852 335.168 119.247C338.027 123.592 340.942 128.501 343.839 134.05Z" fill="white"/>
<path d="M317.863 146.445C317.487 146.558 317.129 146.652 316.734 146.746C313.819 132.62 316.791 117.78 324.973 105.817C325.236 106.118 325.481 106.4 325.744 106.701C317.863 118.344 315.06 132.733 317.863 146.445Z" fill="#D7C4AC"/>
<path d="M335.45 139.241C335.131 139.411 334.792 139.599 334.453 139.768C331.557 132.978 331.406 125.134 334.397 118.081C334.66 118.457 334.905 118.852 335.168 119.247C332.629 125.793 332.817 132.978 335.45 139.241Z" fill="#D7C4AC"/>
<path d="M199.269 112.437C199.269 112.437 165.788 166.195 172.465 181.581C176.998 192.021 187.287 191.532 198.159 175.412C213.47 152.746 224.06 127.861 224.06 127.861L199.269 112.437Z" fill="#E8A36F"/>
<path d="M241.064 203.1C231.471 196.742 219.696 189.294 215.012 185.231C203.482 175.205 183.281 159.161 172.954 167.362C172.954 167.362 164.546 184.29 178.842 195.219C192.46 205.62 222.837 216.962 237.001 221.251C238.562 215.232 240.33 209.251 241.064 203.1Z" fill="#E8A36F"/>
<path d="M199.626 173.888C199.475 173.888 199.325 173.832 199.193 173.719C193.833 169.205 186.29 166.477 186.215 166.44C185.838 166.308 185.65 165.894 185.782 165.537C185.914 165.161 186.328 164.973 186.685 165.104C187.005 165.217 194.547 167.963 200.096 172.628C200.397 172.873 200.435 173.324 200.19 173.625C200.04 173.813 199.833 173.907 199.626 173.888Z" fill="#B05935"/>
<path d="M198.46 172.967C198.121 172.948 197.839 172.703 197.783 172.365C197.294 169.224 193.287 166.195 193.25 166.158C192.93 165.932 192.873 165.481 193.099 165.161C193.325 164.841 193.776 164.785 194.096 165.01C194.284 165.142 198.591 168.415 199.175 172.12C199.231 172.497 198.968 172.873 198.591 172.929C198.535 172.967 198.497 172.967 198.46 172.967Z" fill="#B05935"/>
<path d="M239.935 112.231C239.879 112.626 239.804 113.039 239.728 113.434C239.484 114.713 239.164 116.03 238.75 117.366C237.942 120.055 236.7 122.839 235.233 125.566C234.951 126.074 234.669 126.582 234.368 127.09C227.784 138.507 217.533 148.721 217.533 148.721C216.292 148.552 215.069 148.326 213.865 148.1C211.759 147.668 209.708 147.16 207.733 146.558C207.32 146.445 206.925 146.313 206.53 146.182C193.382 142.044 183.92 135.178 183.92 135.178C185.105 132.808 186.309 130.551 187.513 128.407C187.72 128.049 187.927 127.692 188.115 127.335C192.554 119.491 196.993 113.152 201.225 108.036C201.47 107.735 201.714 107.453 201.94 107.171C203.896 104.838 205.815 102.769 207.658 100.926C207.921 100.663 208.204 100.399 208.467 100.136C213.207 95.5464 217.458 92.4804 220.881 90.4678C221.22 90.2797 221.558 90.0728 221.878 89.9035C226.43 87.3642 229.289 86.7623 229.477 86.7435C233.145 89.0195 236.155 92.2547 238.073 96.3364C238.242 96.675 238.393 97.0324 238.543 97.3897C240.255 101.547 240.857 106.531 239.935 112.231Z" fill="white"/>
<path d="M239.935 112.23C239.879 112.625 239.803 113.039 239.728 113.434C239.408 113.453 239.07 113.472 238.75 113.472C231.283 113.66 223.815 111.854 217.307 108.299C213.733 106.362 210.479 103.879 207.658 100.926C207.921 100.663 208.203 100.399 208.467 100.136C211.1 102.92 214.185 105.29 217.533 107.152C219.094 108.017 220.712 108.788 222.386 109.447C228.066 111.704 234.029 112.55 239.935 112.23Z" fill="#D7C4AC"/>
<path d="M235.214 125.566C234.932 126.074 234.65 126.582 234.349 127.09C229.853 128.67 225.565 130.89 221.577 133.749C219.038 135.573 216.649 137.586 214.373 139.73C212.041 141.893 209.84 144.207 207.714 146.577C207.301 146.464 206.906 146.332 206.511 146.201C209.05 143.36 211.683 140.614 214.505 138.056C217.401 135.423 220.486 132.977 223.834 130.852C227.502 128.557 231.302 126.808 235.214 125.566Z" fill="#D7C4AC"/>
<path d="M206.36 128.52C202.372 131.811 196.974 132.15 192.177 130.589C190.522 130.043 188.961 129.31 187.494 128.444C187.701 128.087 187.908 127.73 188.096 127.372C193.344 130.57 199.231 132.075 204.78 128.275C209.388 125.134 210.065 119.566 207.545 114.807C206.059 112.024 203.745 109.898 201.206 108.055C201.451 107.754 201.695 107.472 201.921 107.189C204.912 109.39 207.62 111.967 209.125 115.447C211.138 120.074 210.329 125.247 206.36 128.52Z" fill="#D7C4AC"/>
<path d="M238.562 97.3898C234.443 98.2738 230.06 97.3333 226.392 95.1514C225.264 94.4743 224.21 93.7031 223.251 92.8567C222.423 92.1231 221.633 91.3143 220.919 90.4679C221.257 90.2798 221.596 90.0729 221.916 89.9036C222.536 90.6183 223.195 91.2955 223.909 91.935C224.699 92.631 225.527 93.2705 226.43 93.8348C229.891 96.0355 234.123 97.1264 238.111 96.3364C238.261 96.675 238.412 97.0324 238.562 97.3898Z" fill="#D7C4AC"/>
<path d="M218.285 148.533C218.417 148.533 218.549 148.496 218.643 148.401C230.267 138.47 236.907 123.535 236.963 123.404C237.095 123.121 236.963 122.783 236.662 122.651C236.38 122.52 236.042 122.651 235.91 122.952C235.853 123.103 229.308 137.793 217.89 147.555C217.646 147.762 217.627 148.119 217.834 148.364C217.966 148.458 218.116 148.533 218.285 148.533Z" fill="#131E07"/>
<path d="M231.565 132.676C231.602 132.676 231.621 132.676 231.659 132.676C235.835 131.943 239.615 129.065 239.766 128.933C240.01 128.745 240.067 128.388 239.879 128.143C239.691 127.899 239.333 127.842 239.089 128.03C239.051 128.049 235.383 130.852 231.471 131.548C231.17 131.604 230.963 131.905 231.019 132.206C231.057 132.488 231.302 132.676 231.565 132.676Z" fill="#131E07"/>
<path d="M309.173 145.994C309.474 145.994 309.718 145.768 309.737 145.467C309.794 144.602 311.167 124.043 308.025 115.278C307.913 114.977 307.593 114.826 307.292 114.939C306.991 115.052 306.84 115.372 306.953 115.673C310 124.212 308.609 145.204 308.59 145.411C308.571 145.731 308.797 145.994 309.116 146.013C309.154 145.994 309.173 145.994 309.173 145.994Z" fill="#131E07"/>
<path d="M234.01 237.145L227.351 224.693C225.696 221.589 227.953 217.827 231.47 217.846L334.791 218.204L331.857 234.229L234.01 237.145Z" fill="#888076"/>
<path d="M329.769 234.756L237.32 235.433C235.082 235.452 233.464 233.647 233.69 231.427L239.577 174.265C239.803 172.026 241.797 170.202 244.035 170.183L336.484 169.506C338.723 169.487 340.34 171.293 340.115 173.512L334.227 230.675C334.002 232.913 332.008 234.737 329.769 234.756Z" fill="#767572"/>
<path d="M236.248 236.073C236.21 236.073 236.192 236.073 236.154 236.073C235.721 236.016 235.42 235.64 235.477 235.207L242.7 173.963C242.756 173.531 243.132 173.23 243.565 173.286C243.998 173.343 244.298 173.719 244.242 174.152L237.019 235.396C236.963 235.772 236.643 236.073 236.248 236.073Z" fill="#797877"/>
<path d="M280.977 201.689C280.658 206.279 284.062 210.21 288.595 210.473C293.128 210.736 297.041 207.219 297.361 202.629C297.68 198.04 294.276 194.109 289.743 193.864C285.228 193.582 281.297 197.099 280.977 201.689Z" fill="#837D77"/>
<path d="M330.54 237.897L236.812 238.575C234.743 238.593 233.144 236.788 233.408 234.737L234.254 228.192L334.848 227.458L333.889 234.926C333.663 236.618 332.233 237.879 330.54 237.897Z" fill="#6C6A67"/>
<path d="M87.9722 241.641C87.9722 241.641 86.9189 235.64 87.5772 226.424C88.6305 211.715 98.656 199.093 112.763 194.805C124.425 191.269 139.849 189.012 155.687 193.676C156.853 194.015 158.019 194.391 159.185 194.824C192.986 206.975 188.509 271.473 183.318 307.7C178.126 343.946 177.788 365.765 162.439 369.339C155.386 370.975 145.097 371.182 136.012 370.938C134.112 370.881 132.288 370.806 130.538 370.731C130.538 370.731 111.447 372.537 101.572 364.204C91.6965 355.871 87.9722 241.641 87.9722 241.641Z" fill="#731F07"/>
<path d="M135.993 370.938C145.078 371.201 155.367 370.994 162.42 369.339C177.769 365.765 178.108 343.927 183.299 307.7C188.49 271.473 192.986 206.975 159.166 194.824C158 194.41 156.834 194.034 155.668 193.676C149.931 195.087 144.683 198.943 141.899 207.332C134.338 230.129 147.185 308.979 135.993 370.938Z" fill="#A5410F"/>
<path d="M154.991 364.787C161.988 364.731 167.424 361.796 170.715 356.285C175.869 347.652 182.829 273.786 183.13 270.645C183.167 270.269 182.885 269.912 182.49 269.874C182.095 269.836 181.757 270.118 181.719 270.513C181.644 271.285 174.477 347.2 169.493 355.57C166.333 360.875 161.254 363.489 154.408 363.395C149.197 363.32 144.871 361.608 144.833 361.589C144.476 361.439 144.062 361.627 143.931 361.984C143.78 362.342 143.968 362.756 144.326 362.887C144.514 362.963 148.896 364.693 154.351 364.787C154.558 364.787 154.784 364.787 154.991 364.787Z" fill="#731F07"/>
<path d="M147.128 215.289C147.523 215.289 147.824 214.969 147.824 214.574C147.806 212.354 149.329 206.937 153.053 203.965C155.442 202.047 158.301 201.463 161.518 202.216C169.719 204.116 172.202 214.461 172.22 214.555C172.314 214.931 172.691 215.176 173.067 215.082C173.443 214.988 173.688 214.611 173.593 214.235C173.481 213.784 170.904 202.931 161.837 200.843C158.17 199.996 154.916 200.674 152.169 202.874C148.201 206.053 146.395 211.752 146.414 214.593C146.414 214.988 146.733 215.289 147.128 215.289Z" fill="#731F07"/>
<path d="M150.834 219.596C150.834 219.596 151.285 207.2 160.652 208.122C170.001 209.044 170.603 229.471 162.27 232.18C150.063 236.13 150.834 219.596 150.834 219.596Z" fill="#731F07"/>
<path d="M254.099 78.8627C257.804 82.4929 262.262 84.4115 266.024 85.446C271.874 87.0825 278.627 85.4837 283.179 82.8127L283.517 74.0474L283.592 72.2605L283.724 68.8748L262.921 54.1845L261.717 53.3381L260.908 52.7738L260.607 53.5262L260.268 54.3914L260.362 54.7676C258.5 63.2319 257.447 72.8624 254.099 78.8627Z" fill="#E8A36F"/>
<path d="M283.254 80.9881C274.79 78.6557 270.369 71.019 268.526 66.7869C272.608 70.3231 277.592 72.7119 282.163 72.4297C282.652 72.3921 283.141 72.3357 283.593 72.2605L283.254 80.9881Z" fill="#131E07"/>
<path d="M259.93 53.5261C259.968 53.5449 260.024 53.5449 260.062 53.5449C260.118 53.827 260.174 54.1092 260.25 54.3913C260.287 54.523 260.306 54.6358 260.344 54.7675C262.733 63.307 273.191 72.9752 282.163 72.4297C282.652 72.3921 283.141 72.3356 283.592 72.2604C292.057 70.7744 294.521 61.0875 293.75 54.0339C293.75 54.0339 293.768 53.7706 293.825 53.3003C293.844 53.1311 293.862 52.943 293.881 52.7361C293.956 52.0777 294.051 51.1749 294.182 50.1215C294.182 50.1027 294.182 50.1027 294.182 50.0839C294.577 46.9239 295.217 42.2779 296.138 37.726C297.737 29.6943 293.035 17.4493 276.689 13.6874C260.344 9.92546 253.516 21.7379 253.554 30.2774C253.554 32.4217 253.967 34.9046 254.569 37.4251C253 37.4251 252.035 36.2914 251 39C249.5 44.5 254.099 52.6232 259.93 53.5261Z" fill="#E8A36F"/>
<path d="M287.034 58.6988C284.307 59.4136 281.429 58.5484 279.586 56.4041C279.153 55.8962 279.868 55.125 280.319 55.6329C281.918 57.495 284.345 58.3038 286.733 57.6643C287.411 57.495 287.693 58.5107 287.034 58.6988Z" fill="#B05935"/>
<g opacity="0.5">
<g opacity="0.5">
<g opacity="0.5">
<g opacity="0.5">
<g opacity="0.5">
<g opacity="0.5">
<path opacity="0.5" d="M269.955 49.2189C269.861 50.1217 272.043 51.1186 274.846 51.4384C277.648 51.7581 280 51.2691 280.112 50.3662C280.225 49.4634 278.025 48.4665 275.222 48.1467C272.401 47.8269 270.049 48.2972 269.955 49.2189Z" fill="#B05935"/>
</g>
</g>
</g>
</g>
</g>
</g>
<g opacity="0.5">
<g opacity="0.5">
<g opacity="0.5">
<g opacity="0.5">
<g opacity="0.5">
<g opacity="0.5">
<path opacity="0.5" d="M293.825 53.3194C293.843 53.1501 293.862 52.962 293.881 52.7551C293.956 52.0968 294.05 51.1939 294.182 50.1406C294.182 50.1218 294.182 50.1218 294.182 50.103C291.887 50.0089 290.1 50.4792 290.025 51.2692C289.931 52.0404 291.549 52.8868 293.825 53.3194Z" fill="#B05935"/>
</g>
</g>
</g>
</g>
</g>
</g>
<path d="M275.824 38.7796C275.561 38.7044 275.335 38.5539 275.128 38.347C274.47 37.6886 274.47 36.6165 275.128 35.9394C275.278 35.7889 279.059 32.121 283.611 34.2089C284.457 34.6039 284.834 35.6008 284.439 36.466C284.044 37.3125 283.047 37.6886 282.181 37.2936C279.736 36.1651 277.536 38.3282 277.517 38.347C277.065 38.8172 276.407 38.9489 275.824 38.7796Z" fill="#A36A24"/>
<path d="M293.373 40.7546C292.903 40.6042 292.489 40.2656 292.301 39.7577C291.774 38.4223 289.423 38.1401 288.821 38.1213C287.881 38.1213 287.128 37.3501 287.147 36.4096C287.147 35.4691 287.918 34.7168 288.859 34.7356C290.759 34.7544 294.295 35.5632 295.48 38.4975C295.818 39.3627 295.405 40.3596 294.539 40.6982C294.126 40.8675 293.731 40.8675 293.373 40.7546Z" fill="#A36A24"/>
<path d="M290.759 46.6234C290.552 47.7708 289.913 48.6172 289.311 48.5232C288.709 48.4291 288.389 47.4134 288.596 46.266C288.803 45.1186 289.442 44.2722 290.044 44.3663C290.646 44.4603 290.966 45.476 290.759 46.6234Z" fill="#131E07"/>
<path d="M287.354 43.971C287.298 43.9522 287.241 43.8958 287.223 43.8394C287.147 43.6889 287.185 43.5008 287.335 43.4256C287.467 43.3503 290.401 41.7327 292.696 43.6889C292.828 43.8018 292.847 43.9899 292.734 44.1215C292.621 44.2532 292.433 44.272 292.301 44.1591C290.326 42.4851 287.674 43.9522 287.636 43.971C287.542 44.0087 287.429 44.0087 287.354 43.971Z" fill="#131E07"/>
<path d="M294.671 40.2844C290.966 39.4756 287.316 41.8268 286.489 45.5323C286.32 46.2658 286.301 46.9994 286.357 47.6954L287.523 48.128C287.373 47.3756 287.392 46.5668 287.561 45.7768C288.238 42.6544 291.304 40.6982 294.427 41.3753C297.53 42.0525 299.505 45.1185 298.828 48.2408C298.151 51.3632 295.066 53.3194 291.962 52.6423C290.514 52.3225 289.292 51.4949 288.502 50.3663L287.561 50.9118C288.502 52.3037 289.969 53.3382 291.737 53.7144C295.423 54.5044 299.091 52.172 299.9 48.4666C300.709 44.7423 298.358 41.0932 294.671 40.2844Z" fill="#161515"/>
<path d="M271.404 44.5917C272.213 40.905 275.881 38.5539 279.567 39.3439C283.254 40.1527 285.605 43.8205 284.815 47.5072C284.007 51.1939 280.339 53.5451 276.652 52.7551C272.947 51.9463 270.595 48.2784 271.404 44.5917ZM272.457 44.8174C271.78 47.921 273.755 51.0058 276.859 51.6829C279.962 52.3601 283.047 50.3851 283.724 47.2815C284.402 44.1779 282.427 41.0931 279.323 40.416C276.219 39.7389 273.135 41.7139 272.457 44.8174Z" fill="#1D1717"/>
<path d="M298.49 48.7862C298.659 48.8238 298.847 48.7862 298.979 48.6546C299.204 48.4476 299.205 48.1091 298.998 47.8834C298.941 47.8269 297.7 46.5291 295.198 46.0964C294.897 46.04 294.615 46.2469 294.559 46.5479C294.502 46.8488 294.709 47.131 295.01 47.1874C297.135 47.5636 298.189 48.6357 298.208 48.6546C298.302 48.711 298.396 48.7674 298.49 48.7862Z" fill="#100F0F"/>
<path d="M272.608 42.1275C268.056 39.9833 264.708 40.0961 262.714 40.5475L262.827 41.6573C264.595 41.2435 267.774 41.0742 272.156 43.1245C272.42 43.2561 272.758 43.1433 272.89 42.8611C273.003 42.5978 272.89 42.2592 272.608 42.1275Z" fill="#1D1919"/>
<path d="M255.028 36.7857C255.028 36.7857 258.612 36.4357 260.811 38.6915C263.009 40.9278 262.88 46.684 265.854 46.9951C268.829 47.3063 264.82 32.6242 266.39 30.5823C267.942 28.5404 276.644 30.9518 279.304 27.3542C281.946 23.776 285.087 23.7955 288.136 27.1403C291.184 30.4851 298.574 33.5771 297.964 28.5793C297.355 23.5816 286.159 10.3385 276.404 10.0274C266.667 9.71622 256.561 11.9526 253.938 22.2009C251.314 32.4297 255.028 36.7857 255.028 36.7857Z" fill="#A36A24"/>
<path d="M264.313 53.0559C263.899 53.5637 263.41 53.9399 262.921 54.2033C262.018 54.6735 261.059 54.7864 260.363 54.7864C260.325 54.6547 260.287 54.5418 260.269 54.4102C260.193 54.128 260.137 53.8459 260.081 53.5449C260.043 53.5449 260.005 53.5261 259.949 53.5261C260.137 53.5449 260.363 53.5449 260.607 53.5261C260.946 53.5073 261.322 53.4697 261.717 53.338C262.3 53.1687 262.883 52.849 263.353 52.2659C263.56 52.0025 263.955 51.9649 264.219 52.1718C264.482 52.4164 264.52 52.7925 264.313 53.0559Z" fill="#B05935"/>
<path d="M282.915 61.1252C282.069 60.8618 281.674 60.2223 281.655 60.1847C281.542 59.9966 281.599 59.7521 281.787 59.6392C281.975 59.5263 282.219 59.5828 282.332 59.7709C282.351 59.8085 282.878 60.6173 284.025 60.4104C284.251 60.3728 284.458 60.5233 284.495 60.7302C284.533 60.9559 284.383 61.1628 284.176 61.2004C283.668 61.2756 283.254 61.238 282.915 61.1252Z" fill="#B05935"/>
<path d="M258.971 49.2374C258.726 49.1622 258.557 48.9365 258.538 48.6731C258.331 44.3093 253.497 41.7512 253.46 41.7136C253.159 41.5631 253.046 41.1869 253.196 40.886C253.347 40.585 253.723 40.4722 254.024 40.6226C254.25 40.7355 259.516 43.5193 259.78 48.6167C259.798 48.9553 259.535 49.2374 259.197 49.2562C259.121 49.2562 259.046 49.2562 258.971 49.2374Z" fill="#B05935"/>
<path d="M254.005 46.0964C253.93 46.0776 253.854 46.04 253.798 45.9835C253.535 45.7578 253.497 45.3816 253.723 45.1183C253.779 45.0431 255.209 43.369 257.673 43.8204C258.011 43.8769 258.237 44.1966 258.162 44.5352C258.086 44.8738 257.785 45.0995 257.447 45.0242C255.679 44.7045 254.682 45.8895 254.682 45.9083C254.494 46.1152 254.23 46.1716 254.005 46.0964Z" fill="#B05935"/>
<path d="M285.925 52.5856C285.774 52.548 285.661 52.4539 285.567 52.3035C285.398 52.0025 285.492 51.6263 285.793 51.457L289.367 49.388L286.188 51.2283L286.527 48.1653C286.188 52 286.244 47.9584 286.188 47.7892L283.874 40.2653C283.78 39.9456 283.95 39.5882 284.288 39.4941C284.608 39.4001 284.965 39.5694 285.059 39.9079L287.298 47.1496L291.003 48.7484C291.21 48.8425 291.361 49.0494 291.38 49.2751C291.398 49.5008 291.267 49.7265 291.079 49.8394L286.451 52.5292C286.263 52.6232 286.075 52.642 285.925 52.5856Z" fill="#B05935"/>
<path d="M284.213 44.3097C284.382 44.3473 284.57 44.3097 284.702 44.178C284.871 44.0087 285.774 43.2752 286.715 44.2157C286.922 44.4226 287.279 44.4226 287.486 44.2157C287.693 44.0087 287.693 43.6514 287.486 43.4445C286.094 42.0337 284.57 42.7861 283.95 43.388C283.724 43.5949 283.724 43.9335 283.931 44.1592C284.025 44.2345 284.119 44.2909 284.213 44.3097Z" fill="#1B1919"/>
<path d="M280.733 45.0621C280.526 46.2095 279.887 47.056 279.285 46.9619C278.683 46.8679 278.363 45.8521 278.57 44.7048C278.777 43.5574 279.416 42.7109 280.018 42.805C280.601 42.899 280.921 43.9148 280.733 45.0621Z" fill="#131E07"/>
<path d="M276.783 42.7483C276.727 42.7295 276.67 42.6919 276.633 42.6354C276.539 42.5038 276.557 42.2969 276.689 42.2028C276.802 42.1088 279.511 40.1338 282.05 41.789C282.2 41.883 282.238 42.0711 282.144 42.2216C282.05 42.3721 281.862 42.4097 281.711 42.3157C279.548 40.9049 277.084 42.6919 277.065 42.7107C276.971 42.7483 276.877 42.7671 276.783 42.7483Z" fill="#131E07"/>
<path d="M179.56 36.8666L155.823 13.4863C155.522 13.1853 155.108 13.0161 154.657 13.0349C154.224 13.0537 153.81 13.2418 153.528 13.5615L119.896 50.9738C119.633 51.2747 119.483 51.6509 119.483 52.0459L122.022 399.233L125.201 399.214L122.661 52.629L154.788 16.9096L177.341 39.1426C177.962 39.7633 178.977 39.7445 179.579 39.1237C180.2 38.4842 180.181 37.4873 179.56 36.8666Z" fill="#131E07"/>
<path d="M156.349 413.604L91.0613 414.074L91.0425 411.628C90.9673 402.506 98.3218 395.057 107.444 395.001L139.722 394.756C148.844 394.681 156.293 402.036 156.349 411.158V413.604Z" fill="#131E07"/>
<path d="M212.195 48.171C217.442 54.19 216.822 63.3503 210.803 68.5982C204.784 73.8461 195.623 73.2253 190.375 67.2063C185.128 61.1684 185.748 52.0269 191.767 46.7791C197.786 41.5124 206.947 42.1331 212.195 48.171Z" fill="white"/>
<path d="M233.092 33.744C217.386 19.7308 193.329 19.2606 177.04 33.443C160.75 47.6443 157.948 71.5324 169.685 89.0065L233.092 33.744Z" fill="#131E07"/>
<path d="M523.306 343.312L523.136 344.592L522.948 346.115L522.704 347.921L521.744 355.482L521.632 356.31L520.616 364.229L520.503 365.075L516.459 396.468L516.365 397.315L514.277 413.51L468.814 413.848L468.156 409.259L468.043 408.412L467.686 405.948L467.554 405.14L465.56 391.22L465.429 390.242L460.952 359.075L460.801 358.097L459.993 352.454L458.751 343.783L523.306 343.312Z" fill="#D5963D"/>
<path d="M473.573 378.167C472.801 383.396 469.848 388.173 465.56 391.202L465.428 390.243C470.77 386.236 473.874 379.239 472.651 372.58C471.504 366.354 466.782 361.238 460.951 359.056L460.801 358.078C462.607 358.699 464.337 359.602 465.898 360.749C471.41 364.756 474.57 371.377 473.573 378.167Z" fill="#A36A24"/>
<path d="M521.744 355.482L521.632 356.291C516.139 355.746 511.004 357.514 506.49 360.636C502.615 363.326 498.703 366.599 493.756 366.655C489.524 366.693 485.291 364.454 483.091 360.824C480.721 356.931 480.796 351.908 483.072 348.015C483.354 347.526 484.106 347.958 483.824 348.447C480.777 353.658 482.169 360.598 487.304 363.909C491.856 366.843 496.953 365.94 501.336 363.194C505.493 360.58 509.086 357.326 513.957 356.065C516.553 355.388 519.186 355.219 521.744 355.482Z" fill="#A36A24"/>
<path d="M523.136 344.592L522.948 346.115C522.516 346.792 522.027 347.413 521.481 348.015C518.998 350.78 515.575 352.661 511.832 353.131C507.6 353.658 503.292 352.266 500.057 349.557C499.38 348.993 498.74 348.354 498.157 347.676C497.8 347.263 498.402 346.642 498.759 347.056C499.53 347.959 500.396 348.767 501.336 349.463C504.214 351.57 507.788 352.661 511.399 352.304C514.747 351.984 517.851 350.423 520.202 348.09C521.18 347.112 522.045 346.002 522.723 344.798C522.817 344.629 522.986 344.573 523.136 344.592Z" fill="#A36A24"/>
<path d="M520.615 364.229L520.503 365.075C518.866 365.151 517.248 365.677 515.875 366.693C513.167 368.706 511.888 372.317 512.64 375.59C513.242 378.186 514.86 380.518 514.935 383.264C514.991 385.465 513.994 387.496 512.565 389.133C508.859 393.384 503.028 394.287 498.683 397.616C494.207 401.058 492.74 407.604 495.542 412.588C495.749 412.965 495.994 413.322 496.238 413.679H495.185C494.978 413.359 494.771 413.021 494.602 412.664C492.156 407.867 493.135 401.585 497.047 397.879C501.693 393.459 509.292 392.97 512.866 387.289C514.973 383.96 513.581 380.951 512.358 377.621C511.38 374.988 511.248 372.298 512.414 369.702C513.957 366.298 517.211 364.379 520.615 364.229Z" fill="#A36A24"/>
<path d="M508.126 405.779C508.07 409.221 510.064 412.099 512.885 413.529L511.23 413.547C508.69 411.742 507.073 408.732 507.28 405.347C507.581 400.324 511.7 396.675 516.478 396.468L516.365 397.315C511.945 397.559 508.183 401.133 508.126 405.779Z" fill="#A36A24"/>
<path d="M504.609 379.239C504.214 383.02 500.659 385.239 497.931 387.346C494.339 390.13 490.859 393.158 488.226 396.901C484.84 401.716 483.072 408.243 484.821 413.736H483.918C482.376 408.582 483.655 402.581 486.514 397.898C488.677 394.362 491.63 391.371 494.79 388.719C496.333 387.421 497.969 386.217 499.568 384.976C501.468 383.509 503.405 381.684 503.706 379.164C504.345 373.615 497.198 372.806 493.285 373.107C489.298 373.408 485.141 374.781 482.752 378.185C480.476 381.421 480.062 385.559 479.385 389.358C478.652 393.384 477.504 397.465 475.021 400.795C473.216 403.221 470.526 405.121 467.648 405.948L467.535 405.14C468.871 404.782 470.15 404.161 471.278 403.334C475.379 400.324 477.278 395.359 478.257 390.543C479.009 386.894 479.31 383.076 480.909 379.653C482.376 376.511 484.99 374.33 488.244 373.22C491.611 372.054 495.806 371.696 499.248 372.637C502.258 373.464 504.966 375.928 504.609 379.239Z" fill="#A36A24"/>
<path d="M477.034 413.773H476.15C475.792 412.25 475.059 410.839 473.667 409.955C471.88 408.789 469.961 408.695 468.156 409.24L468.043 408.413C470.319 407.717 472.726 407.961 474.833 409.748C476.056 410.82 476.714 412.25 477.034 413.773Z" fill="#A36A24"/>
<path d="M523.306 343.312L523.136 344.592L522.948 346.115L522.704 347.921L521.481 348.015L520.202 348.109L501.355 349.463L500.057 349.557L459.993 352.454L458.751 343.783L523.306 343.312Z" fill="#171612"/>
<path d="M529.061 343.651C503.725 345.983 478.369 346.172 453.014 344.215L452.958 337.312L529.005 336.767L529.061 343.651Z" fill="#D5963D"/>
<path d="M511.098 255.472C508.747 258.331 507.11 268.883 502.577 270.614C499.455 271.799 497.762 267.303 503.781 261.547C507.656 257.842 509.367 253.441 510.082 250.77C508.972 246.124 507.543 241.365 505.718 237.039C502.239 240.293 496.671 244.92 495.053 242.738C493.285 240.368 498.458 232.806 501.336 228.932C499.963 226.975 498.458 225.264 496.765 223.91C494.019 221.69 490.84 220.449 487.153 220.561C484.501 220.655 482.075 221.634 479.893 223.27C483.053 229.421 487.736 239.822 484.52 242.249C481.548 244.506 477.147 235.891 474.382 229.458C470.601 235.383 468.099 243.471 467.046 251.277C467.798 252.669 469.115 254.287 471.353 255.867C477.297 260.08 484.37 268.601 480.871 270.538C477.372 272.476 473.667 267.454 471.034 262.977C469.679 260.682 468.156 258.82 466.519 257.597C466.482 258.971 466.482 260.287 466.538 261.585C467.648 286.094 491.574 285.906 491.574 285.906C491.574 285.906 515.518 280.207 511.098 255.472ZM480.984 256.168C478.614 256.168 474.814 251.766 473.027 249.321C471.24 246.857 472.651 245.183 474.344 245.635C474.363 245.635 474.382 245.653 474.419 245.653C476.808 246.368 484.05 256.187 480.984 256.168ZM501.825 250.149C501.844 250.149 501.881 250.13 501.9 250.13C503.593 249.641 505.004 250.77 504.214 252.933C503.198 255.773 501.806 256.92 499.681 255.867C498.326 255.209 499.436 250.882 501.825 250.149Z" fill="#7F784B"/>
<path d="M488.752 249.49C490.934 260.193 490.332 271.272 489.618 282.106C488.847 293.674 487.774 305.28 488.301 316.885C488.602 323.469 489.43 330.033 491.066 336.428C491.198 336.974 492.044 336.729 491.912 336.184C486.063 313.217 491.122 289.762 491.122 266.513C491.122 260.72 490.746 254.926 489.599 249.227C489.486 248.7 488.64 248.945 488.752 249.49Z" fill="#171612"/>
<path d="M478.256 286.113C478.05 289.818 482.94 299.298 480.307 303.38C478.482 306.182 474.476 303.53 475.943 295.348C476.883 290.063 475.661 285.511 474.683 282.934C471.052 279.83 467.084 276.839 463.058 274.413C462.174 279.097 460.406 286.113 457.81 285.304C454.989 284.42 454.707 275.278 454.744 270.444C452.487 269.673 450.249 269.184 448.086 269.09C444.569 268.921 441.258 269.786 438.343 272.062C436.255 273.698 434.863 275.918 434.073 278.532C440.261 281.636 450.155 287.279 449.008 291.116C447.935 294.69 439.302 290.326 433.283 286.771C433.734 293.787 436.48 301.8 440.224 308.722C441.653 309.399 443.666 309.926 446.412 309.888C453.691 309.775 464.45 312.502 462.757 316.114C461.083 319.744 455.121 317.863 450.343 315.813C447.898 314.76 445.565 314.158 443.515 314.139C444.286 315.267 445.076 316.34 445.885 317.336C461.234 336.466 480.457 322.208 480.457 322.208C480.457 322.208 496.408 303.511 478.256 286.113ZM454.349 304.452C452.431 305.844 446.769 304.527 443.891 303.605C440.995 302.684 441.145 300.483 442.782 299.862C442.8 299.862 442.819 299.844 442.857 299.844C445.189 298.997 456.832 302.646 454.349 304.452ZM467.629 287.298C467.648 287.279 467.667 287.26 467.667 287.241C468.739 285.849 470.545 285.924 471.184 288.144C472.03 291.041 471.579 292.771 469.247 293.185C467.798 293.448 466.143 289.291 467.629 287.298Z" fill="#7F784B"/>
<path d="M456.644 294.445C462.306 299.58 467.911 304.903 472.501 311.054C476.018 315.756 478.727 320.929 481.191 326.233C482.94 329.995 484.595 333.795 486.307 337.557C486.533 338.065 487.285 337.613 487.059 337.105C484.257 330.898 481.642 324.578 478.369 318.597C475.435 313.236 471.786 308.364 467.629 303.906C464.356 300.37 460.839 297.06 457.265 293.824C456.851 293.448 456.231 294.069 456.644 294.445Z" fill="#171612"/>
<path d="M499.361 326.478C499.361 326.478 518.697 340.585 533.895 321.343C534.685 320.328 535.475 319.255 536.227 318.127C534.177 318.164 531.864 318.766 529.418 319.857C524.66 321.945 518.716 323.864 517.004 320.252C515.292 316.641 526.033 313.838 533.293 313.895C536.039 313.914 538.033 313.368 539.463 312.672C543.168 305.731 545.858 297.681 546.234 290.665C540.253 294.276 531.657 298.697 530.547 295.142C529.362 291.304 539.218 285.586 545.388 282.445C544.579 279.831 543.168 277.63 541.08 275.993C538.165 273.736 534.836 272.909 531.318 273.097C529.155 273.21 526.936 273.717 524.678 274.507C524.754 279.342 524.547 288.502 521.725 289.405C519.148 290.232 517.305 283.216 516.402 278.551C512.377 280.997 508.446 284.025 504.834 287.166C503.856 289.762 502.671 294.333 503.668 299.599C505.192 307.782 501.204 310.453 499.361 307.669C496.69 303.625 501.505 294.107 501.279 290.402C483.26 307.894 499.361 326.478 499.361 326.478ZM536.811 303.813C536.829 303.832 536.867 303.832 536.886 303.832C538.541 304.452 538.691 306.634 535.814 307.593C532.936 308.534 527.293 309.888 525.356 308.515C522.835 306.747 534.459 303.004 536.811 303.813ZM510.345 297.38C508.013 296.985 507.543 295.254 508.37 292.358C509.01 290.138 510.797 290.044 511.888 291.417C511.907 291.436 511.925 291.455 511.925 291.474C513.43 293.468 511.813 297.624 510.345 297.38Z" fill="#7F784B"/>
<path d="M522.346 297.926C510.816 309.663 501.674 323.243 492.853 337.068C492.552 337.539 493.304 337.971 493.605 337.501C502.389 323.751 511.474 310.227 522.967 298.528C523.362 298.133 522.741 297.512 522.346 297.926Z" fill="#171612"/>
<path d="M529.005 336.748C529.005 337.444 511.982 338.14 490.991 338.29C469.98 338.441 452.958 338.008 452.958 337.293C452.958 336.597 469.98 335.901 490.972 335.751C511.982 335.601 529.005 336.052 529.005 336.748Z" fill="#171612"/>
<path d="M292.192 196.006C292.164 195.979 291.127 196.016 290.225 196.811C289.323 197.606 289.462 198.518 289.482 198.541C289.502 198.564 290.768 198.601 291.576 197.676C292.384 196.751 292.221 196.032 292.192 196.006ZM294.997 204.072C294.956 204.006 293.029 203.224 293.209 201.719C293.388 200.214 294.626 199.802 294.645 199.757C294.665 199.712 294.14 199.214 293.584 198.962C293.176 198.784 292.724 198.682 292.262 198.663C292.17 198.661 291.853 198.598 291.201 198.743C290.771 198.839 289.802 199.148 289.535 199.16C289.268 199.173 288.473 198.802 287.617 198.703C287.07 198.617 286.489 198.793 286.074 198.929C285.659 199.063 284.871 199.447 284.319 200.467C283.767 201.486 284.056 203.1 284.262 203.602C284.469 204.103 284.791 204.924 285.339 205.524C285.827 206.2 286.473 206.67 286.743 206.829C287.013 206.989 287.775 207.095 288.303 206.876C288.727 206.664 289.494 206.542 289.797 206.551C290.099 206.56 290.695 206.657 291.305 206.922C291.788 207.057 292.245 207.001 292.703 206.849C293.16 206.697 293.823 206.121 294.596 204.953C294.89 204.41 295.024 204.117 294.997 204.072Z" fill="black"/>
<path d="M292.192 196.006C292.164 195.979 291.127 196.016 290.225 196.811C289.323 197.606 289.462 198.518 289.482 198.541C289.502 198.564 290.768 198.601 291.576 197.676C292.384 196.751 292.221 196.032 292.192 196.006ZM294.997 204.072C294.956 204.006 293.029 203.224 293.209 201.719C293.388 200.214 294.626 199.802 294.645 199.757C294.665 199.712 294.14 199.214 293.584 198.962C293.176 198.784 292.724 198.682 292.262 198.663C292.17 198.661 291.853 198.598 291.201 198.743C290.771 198.839 289.802 199.148 289.535 199.16C289.268 199.173 288.473 198.802 287.617 198.703C287.07 198.617 286.489 198.793 286.074 198.929C285.659 199.063 284.871 199.447 284.319 200.467C283.767 201.486 284.056 203.1 284.262 203.602C284.469 204.103 284.791 204.924 285.339 205.524C285.827 206.2 286.473 206.67 286.743 206.829C287.013 206.989 287.775 207.095 288.303 206.876C288.727 206.664 289.494 206.542 289.797 206.551C290.099 206.56 290.695 206.657 291.305 206.922C291.788 207.057 292.245 207.001 292.703 206.849C293.16 206.697 293.823 206.121 294.596 204.953C294.89 204.41 295.024 204.117 294.997 204.072Z" fill="black"/>
</svg>
