<svg width="1440" height="215" viewBox="0 0 1440 215" fill="none" xmlns="http://www.w3.org/2000/svg">
<rect x="-8" width="1448" height="216.15" fill="#000C24"/>
<path d="M1354.79 209.439C1356.08 203.639 1352.18 199.546 1349.93 194.952C1349.65 194.382 1348.22 194.395 1347.12 194.075L1345.44 188.38L1342.72 190.25C1341.73 187.469 1341.2 187.626 1336.1 192.643C1337.83 185.075 1337.33 183.725 1333 183.944C1331.46 182.205 1335.59 179.767 1332.24 178.222C1328.59 176.549 1328.64 180.744 1326.15 181.524C1327.21 179.259 1328.27 176.973 1329.33 174.728C1330.13 173.446 1330.87 172.122 1331.54 170.762C1331.89 169.836 1332.11 168.212 1331.62 167.747C1330.45 166.641 1329.05 165.418 1327.05 166.814C1324.46 168.639 1321.61 170.061 1318.6 171.031C1321.09 168.822 1323.71 166.738 1325.98 164.363C1326.9 163.381 1327.14 161.818 1327.68 160.515L1323.6 160.41C1324.63 159.43 1325.72 158.453 1326.86 157.477C1327.27 157.145 1328.1 157.197 1328.34 156.821C1331.24 152.27 1334.95 147.941 1336.69 142.958C1338.19 138.612 1334.69 134.277 1330.25 132.181C1327.07 130.681 1329.02 127.664 1328.42 125.386C1328.32 124.253 1328.4 123.112 1328.65 122.002C1322.82 122.384 1320.74 127.027 1317.49 130.483C1318.79 126.434 1324.45 122.879 1317.98 119.283L1306.52 113.676L1305.28 104.029C1306.6 102.434 1308.47 99.9484 1310.6 97.7509C1311.26 97.064 1312.69 97.1311 1313.76 96.8269C1314.81 96.4526 1315.9 96.1777 1317 96.0057C1318.06 95.9326 1320.06 96.1451 1320.09 96.4075C1320.45 99.5947 1322.64 99.4906 1324.3 99.282C1325.24 101.519 1325.7 104.417 1327.05 104.975C1328.41 105.533 1331.01 104.203 1332.64 103.108C1333.46 102.536 1333.33 100.592 1333.53 99.7019L1352.54 85.5913L1353.06 85.8563L1351.55 88.7336L1351.82 89.666C1355.35 88.8017 1358.87 87.9476 1362.01 87.1841C1362.37 88.1992 1362.45 89.74 1363.14 90.0895C1366.29 91.7197 1369.2 90.5985 1371.78 88.5733L1374.3 93.0234L1373.26 94.7966C1374.75 94.7547 1375.75 94.7303 1376.75 94.716C1375.13 97.842 1376.41 100.59 1380.93 103.473C1379.02 105.727 1380.07 106.568 1382.52 107.064C1385.8 107.742 1386.75 110.191 1384.78 112.775C1382.82 115.359 1383.93 117.158 1385.46 119.289C1386.54 121.093 1387.54 122.952 1388.44 124.857C1389.08 125.94 1389.92 126.907 1390.64 127.931C1391.35 128.955 1391.91 129.905 1392.56 130.907L1391.54 131.695L1388.6 129.367C1387.75 128.681 1386.91 127.452 1386.05 127.44C1384.6 127.403 1383.15 128.19 1381.7 128.625C1382.47 129.5 1383.08 130.752 1384.05 131.21C1388.08 133.074 1392.22 134.7 1396.12 137.114C1393.89 136.493 1391.6 135.991 1389.44 135.201C1386.81 134.188 1385.14 134.828 1384.49 137.567C1383.83 140.007 1383.31 142.482 1382.93 144.979C1382.66 146.595 1382.77 148.252 1383.26 149.815C1384.41 152.862 1386.11 155.671 1387.32 158.659C1387.6 159.36 1386.97 160.39 1386.98 161.265C1386.95 162.451 1386.74 164.035 1387.38 164.745C1392.09 169.986 1393.14 174.217 1390.22 179.451C1394.35 181.137 1394.61 184.845 1394.87 189.407C1393.92 187.947 1392.83 186.573 1391.64 185.301C1390.7 184.501 1389.53 184.03 1388.3 183.957C1387.84 183.946 1387.36 185.653 1386.06 186.695C1386.11 185.133 1386.06 183.569 1385.9 182.015C1385.61 181.17 1385.18 180.386 1384.61 179.698C1383.21 180.642 1381.87 181.675 1380.61 182.793C1380.11 183.273 1380.39 184.608 1379.89 185.067C1376.02 188.557 1377.53 192.529 1378.6 196.549C1379.01 198.489 1379.31 200.451 1379.51 202.425C1377.9 202.123 1376.52 201.855 1375.12 201.598C1371.65 193.181 1371.18 192.706 1367.9 194.492L1365.11 190.568C1364.38 191.977 1363.47 192.929 1363.46 193.904C1363.41 195.864 1362.48 196.323 1360.82 196.35C1356.6 196.442 1354.56 199.326 1355.36 203.601C1355.71 205.521 1357.67 207.744 1354.78 209.389L1354.79 209.439ZM1332.61 104.817C1330.53 105.604 1328.5 106.522 1326.54 107.566C1326.13 107.807 1326.2 109.448 1326.56 110.202C1326.82 110.762 1328.23 111.412 1328.59 111.18C1330.64 109.885 1333.27 108.948 1332.61 104.817Z" fill="#6A0A6C"/>
<path d="M1204.17 194.629C1205.7 196.68 1204.63 197.98 1202.74 198.716C1200.2 199.655 1197.58 200.463 1194.98 201.311C1188.89 203.292 1182.79 205.269 1176.7 207.244C1176.42 207.337 1176.08 207.228 1175.52 206.6L1199.41 195.995L1199.24 195.266L1194.76 195.15L1194.67 194.595C1198.47 193.335 1202.24 191.934 1206.09 190.928C1207.04 190.681 1208.31 191.78 1209.45 192.191C1210.05 192.493 1210.71 192.632 1211.38 192.593C1216.02 191.497 1220.65 190.339 1224.23 186.832C1224.47 186.601 1224.75 186.429 1225.07 186.33C1229.24 185.08 1233.44 183.942 1237.58 182.631C1240.53 181.736 1243.41 180.613 1246.19 179.274C1246.73 178.996 1246.46 176.978 1246.44 175.771C1246.46 174.977 1245.82 173.994 1246.11 173.439C1247.16 171.515 1248.12 169.347 1249.72 167.981C1252.68 165.463 1251.29 163.757 1249.63 162.276L1250.12 157.955L1249.35 157.774C1251.9 155.054 1254.63 152.49 1256.89 149.551C1257.67 148.566 1257.28 146.595 1257.38 145.722C1259.09 143.594 1260.59 141.531 1262.3 139.675C1264.75 137.033 1268.18 136.93 1271.38 136.681C1273.18 136.68 1274.97 136.824 1276.74 137.112C1277.04 137.099 1277.34 137.158 1277.61 137.285C1280.44 139.37 1283.24 141.454 1286.01 143.537C1283.35 144.624 1283.52 146.188 1286.14 148.136C1287.21 148.928 1287.77 150.391 1288.69 151.42C1290.64 153.572 1295.03 153.857 1297.78 152.731C1299.21 152.145 1301.11 152.707 1302.9 152.753L1301.87 147.799C1304.18 149.075 1305.92 149.684 1307.2 150.833C1309.76 153.142 1309.74 156.158 1309.38 159.478C1308.89 164.162 1309.31 168.92 1312.54 172.775C1313.27 173.638 1314.65 173.945 1315.28 174.284C1313.92 177.341 1312.72 180.473 1311.7 183.664C1311.02 186.241 1312.31 188.155 1315.03 189.151C1316.59 189.724 1317.9 191.005 1319.31 191.967L1318.81 193.211C1316.44 192.939 1314.07 192.525 1311.69 192.434C1310.54 192.554 1309.42 192.833 1308.35 193.262C1308.79 194.47 1308.9 196.032 1309.73 196.828C1312.65 199.649 1316.12 201.71 1317.13 206.362C1317.65 208.729 1320.39 210.6 1322.22 212.82C1320.52 215.934 1321.55 218.525 1323.94 221.111C1328.15 225.675 1332.11 230.464 1336.16 235.185C1336.41 235.651 1336.59 236.15 1336.7 236.667C1333.56 237.763 1332.41 235.551 1330.95 233.733C1325.74 227.162 1320.59 220.532 1315.1 214.215C1313.36 212.158 1310.67 210.982 1308.33 209.534C1307.93 209.282 1307.14 209.724 1306.51 209.768C1305.37 209.86 1303.92 210.385 1303.12 209.872C1299.49 207.575 1296.7 209.706 1294.77 210.661L1291.65 217.731C1291.05 216.497 1290.37 215.306 1289.62 214.168C1289.01 213.388 1288.08 212.248 1287.38 212.3C1286.27 212.553 1285.28 213.185 1284.59 214.089C1283.98 214.879 1283.61 215.824 1283.52 216.816C1283.11 220.155 1281.5 220.143 1279.01 218.802C1277.79 218.182 1276.37 218.059 1275.06 218.459C1273.74 218.86 1272.63 219.752 1271.96 220.952C1271.32 222.022 1269.75 223.741 1269.44 223.572C1267.8 222.718 1266.34 221.561 1265.12 220.162C1263.58 218.176 1262.15 216.108 1260.83 213.967L1258.41 218.661C1257.91 217.783 1257.6 217.312 1257.37 216.814C1256.68 215.277 1255.96 214.303 1254.29 215.939C1252.77 217.419 1251.17 217.498 1250.74 215.043C1250.11 211.447 1249.77 207.787 1249.38 204.146C1249.34 203.141 1249.36 202.133 1249.46 201.131C1249.01 200.879 1248.82 200.662 1248.65 200.688C1242.13 201.596 1241.74 200.811 1243.86 194.299C1244.56 192.135 1244.48 188.924 1243.32 187.134C1241.86 184.864 1239.13 183.677 1235.82 185.06C1229.51 187.702 1223.12 190.172 1216.63 192.257C1212.78 193.384 1208.62 193.779 1204.17 194.629Z" fill="url(#paint0_linear)"/>
<path d="M1205.75 86.6097C1201.6 83.0026 1200.71 82.8788 1197.86 85.3998L1197.57 82.9284L1191.33 76.0388C1194.34 73.5021 1192.47 70.7079 1190.8 67.9798C1191.82 66.7086 1192.95 65.5297 1194.18 64.4566C1195.86 63.2478 1197.86 62.5876 1199.93 62.5655C1202 62.5434 1204.02 63.1605 1205.72 64.3331C1207.55 65.5269 1208.92 66.2563 1211.19 64.354C1213.79 62.1785 1217.28 61.0519 1220.32 59.3909C1224.17 57.2879 1227.72 58.9185 1230.28 61.2777C1231.89 62.7777 1231.81 66.1042 1232.73 69.4972C1236.43 71.8959 1242.95 70.7071 1245.06 66.4272C1245.24 70.3641 1251.32 72.2108 1258.66 70.3592C1257.42 72.8113 1257.08 74.9646 1260.14 76.0697C1260.46 76.1785 1260.54 76.9851 1260.69 77.4719C1261.44 80.0742 1262.34 82.6296 1263.39 85.1245C1262.91 86.3992 1260.76 87.7718 1263.08 88.7268L1260.03 96.9246C1255.96 96.3969 1257.63 100.986 1255.5 102.842C1251.37 102.876 1250.02 103.766 1249.07 107.422L1246.84 105.665L1246.46 108.672C1244 108.065 1241.5 107.015 1239.07 106.962C1235.87 106.897 1232.7 106.228 1229.74 104.991C1228.14 104.428 1226.76 103.354 1225.82 101.933C1224.6 100.161 1223.38 100.864 1222.45 102.268C1221.24 104.057 1220.16 105.93 1218.82 107.655C1219.17 103.511 1223.94 101.029 1223.12 96.0398C1221.67 96.2438 1220.45 96.4132 1219.43 96.5579C1220.49 94.2321 1221.79 91.8923 1222.62 89.3994C1223.34 87.3062 1220.55 84.8707 1218.18 85.1313C1216.74 85.285 1215.01 84.6869 1213.86 85.2908C1211.08 86.6772 1207.86 82.571 1205.75 86.6097Z" fill="#E13F11"/>
<path d="M1333.1 43.7344C1329.08 44.3847 1327.26 46.2783 1328.69 48.8598C1326.93 48.4924 1325.01 47.598 1323.28 47.865C1321.75 48.1069 1320.41 49.6411 1319.43 50.3097C1314.46 49.1753 1309.71 48.1374 1305 47.0901L1300.76 40.9464C1301.72 38.7285 1300.81 35.2354 1299.51 34.6286L1300.07 27.0299L1299.07 26.8031L1301.54 26.4748C1302.13 21.8136 1306.32 20.5642 1308.26 18.8345C1311.55 18.4369 1313.89 18.3364 1316.14 17.8516C1318.69 17.2942 1322.55 19.5562 1324.35 21.0811C1328.1 24.336 1328.64 30.7362 1334.76 31.4073C1333.74 32.1051 1332.41 32.5734 1332.24 33.3032C1332.07 34.033 1333.12 35.0559 1333.51 36.0012C1333.91 36.773 1334.13 37.6296 1334.15 38.5017C1333.89 40.2628 1333.54 42.0093 1333.1 43.7344V43.7344Z" fill="#1928AE"/>
<path d="M1123.08 41.0046L1122.08 43.2617C1124.06 44.0672 1125.88 44.7779 1127.04 45.2303L1128.82 48.8266C1128.87 50.6866 1129.07 52.5394 1129.43 54.3635C1130.23 57.1197 1127.54 58.6793 1127.47 61.1312C1127.32 62.2899 1126.89 63.3941 1126.22 64.3472C1125.89 64.8819 1125.04 65.0609 1124.54 65.5206C1122.22 67.8839 1119.32 69.5802 1116.14 70.4322C1111.43 71.6682 1108.07 69.7508 1105.04 68.0129C1101.38 65.9068 1099.68 61.7397 1099.38 57.0254C1099.06 51.7874 1102.69 48.6632 1104.7 44.6422C1106.39 41.1661 1110.64 42.1207 1113.01 39.6579C1113.61 39.0398 1115.93 40.196 1117.48 40.417C1119.16 40.6718 1120.9 40.7872 1123.08 41.0046Z" fill="#C01616"/>
<path d="M1275.11 119.51C1273.77 121.698 1272.28 123.787 1270.64 125.761C1269.33 127.165 1267.4 127.98 1265.76 129.064C1264.34 130.033 1262.6 130.671 1261.6 131.973C1260.17 133.746 1259.21 134.124 1257.83 131.524C1257.38 134.609 1255.49 134.299 1253.77 133.882C1251.78 133.418 1251.06 132.133 1251.19 129.984C1251.44 125.465 1250.64 124.78 1246.62 125.33C1247.95 121.603 1246.87 118.186 1245.88 115.023C1247.94 112.813 1250.18 110.297 1252.6 108.016C1253.42 107.233 1254.83 107.118 1255.88 106.542C1260.52 103.957 1265.08 104.286 1269.06 107.808C1270.29 108.896 1272.05 108.409 1273.24 110.401C1274.51 112.586 1276.66 113.999 1275.48 117.016C1275.19 117.752 1275.77 118.833 1275.96 119.753L1275.11 119.51Z" fill="#F85F73"/>
<path d="M1180.08 51.4503C1178.01 49.4354 1175.63 47.8656 1174.28 45.6482C1172.62 42.9301 1173.9 40.0469 1176.05 37.9904C1178.19 35.9339 1180.81 34.9356 1183.96 36.3247C1185.71 37.1041 1187.77 37.1172 1189.64 37.6885C1190.82 38.0509 1192.62 38.6002 1192.84 39.4004C1193.03 40.8596 1192.71 42.3408 1191.94 43.591C1191.09 45.344 1189.83 46.8667 1188.27 48.0318C1185.99 49.4409 1183.28 50.1653 1180.08 51.4503Z" fill="#18D120"/>
<path d="M1173.25 58.947C1171.4 57.1695 1171.49 56.8098 1174.9 55.5402C1176.47 54.9574 1177.94 53.9897 1179.57 53.6497C1181.04 53.554 1182.52 53.6498 1183.97 53.9346C1184.45 54.8675 1185.07 55.7185 1185.82 56.4564C1188.55 58.4579 1189.15 61.0883 1188.47 64.1883C1187.74 67.4881 1185.03 68.6047 1182.25 69.3473C1180.23 69.8986 1177.54 70.8044 1176.06 69.9515C1174.58 69.0986 1174.41 66.2884 1173.89 64.2637C1173.57 62.5067 1173.35 60.731 1173.25 58.947V58.947Z" fill="white"/>
<path d="M1298.99 88.0269C1297.48 86.5194 1295.76 84.5945 1293.83 82.9453C1291.19 80.6949 1291.23 77.3971 1294.11 74.2032C1296.29 71.8058 1299.25 70.6656 1302.07 71.6235C1304.61 72.4837 1307.36 73.7013 1308.01 77.4091C1309 82.9358 1307.73 84.864 1302.01 85.5708C1300.81 85.7207 1299.76 87.3732 1298.99 88.0269Z" fill="#E0B3B3"/>
<path d="M1305.62 53.925C1305.47 56.7471 1303.27 59.0133 1300.78 58.9087C1298.3 58.804 1295.51 55.8859 1295.56 53.4736C1295.61 51.0613 1298.96 47.618 1301.07 47.7731C1302.92 47.9619 1305.68 51.714 1305.62 53.925Z" fill="white"/>
<path d="M1357.72 14.9051C1356.42 14.3042 1355.16 13.6268 1353.94 12.8764C1352.84 12.0836 1351.38 11.2413 1351.01 10.1053C1350.64 8.96934 1350.86 6.56144 1351.66 6.09947C1352.97 5.27858 1355.75 4.74697 1356.5 5.50056C1358.04 7.26759 1359.09 9.41554 1359.53 11.7237C1359.77 12.635 1358.27 13.9942 1357.72 14.9051Z" fill="white"/>
<path d="M1116.27 158.644C1118.01 156.678 1118.93 154.69 1120.38 154.215C1122.28 153.56 1125.33 156.354 1125.22 157.981C1125.11 160.08 1122.7 162.431 1120.82 161.809C1119.29 161.337 1118.09 159.988 1116.27 158.644Z" fill="#CDDC21"/>
<path d="M1408.63 127.542C1406.79 121.46 1407.63 116.775 1411.08 114.531C1413.22 117.322 1412.11 123.187 1408.63 127.542Z" fill="white"/>
<path d="M1161.14 98.7703C1164.31 96.1573 1166.69 94.0263 1169.31 92.1833C1170.36 91.6576 1171.53 91.4077 1172.71 91.4567C1173.26 91.4207 1174.21 91.7872 1174.33 92.1725C1174.46 92.8904 1174.34 93.6309 1174.01 94.276C1173.73 94.7488 1173.28 95.0972 1172.76 95.2495C1169.08 96.4013 1165.46 97.4742 1161.14 98.7703Z" fill="#D122C0"/>
<path d="M1222.71 199.614C1221.18 202.672 1216.42 204.852 1211.71 204.65C1215.67 202.992 1217.5 198.243 1222.71 199.614Z" fill="white"/>
<path d="M1406.82 141.786L1398.46 137.365L1398.54 137.076L1404.85 138.899L1407.28 132.696L1408.09 132.898L1406.82 141.786Z" fill="white"/>
<path d="M1395.38 107.357C1395.92 105.495 1396.6 103.674 1397.39 101.908C1397.66 101.412 1399.04 101.508 1399.89 101.329C1399.96 102.125 1400.34 103.11 1400.02 103.675C1399.03 105.219 1397.95 106.705 1396.79 108.127L1395.38 107.357Z" fill="white"/>
<path d="M1297.07 114.427L1297.45 99.8037L1298.96 99.9034L1297.93 114.509L1297.07 114.427Z" fill="white"/>
<path d="M1398.09 180.258L1399.27 171.067C1402.79 174.728 1400.1 177.494 1398.86 180.479L1398.09 180.258Z" fill="white"/>
<path d="M1177.44 26.3505C1179.02 25.0942 1180 23.7821 1180.65 23.9295C1181.64 24.1665 1182.35 25.4017 1183.19 26.2179C1182.39 26.9414 1181.67 28.1095 1180.78 28.2674C1179.88 28.4252 1179.08 27.3485 1177.44 26.3505Z" fill="url(#paint1_linear)"/>
<path d="M1202.9 27.955C1203.86 29.619 1204.98 30.7442 1204.75 31.2511C1204.29 32.245 1203.1 32.928 1202.2 33.7397C1201.65 33.0516 1200.53 32.2382 1200.65 31.688C1200.88 30.608 1201.8 29.6763 1202.9 27.955Z" fill="#CC2222"/>
<path d="M1180.37 20.8951C1182.06 19.8227 1183.05 18.6918 1183.86 18.8132C1184.67 18.9347 1185.36 20.2802 1186.11 21.084C1185.3 21.7568 1184.52 22.8932 1183.65 22.9513C1182.79 23.0095 1181.94 21.9415 1180.37 20.8951Z" fill="white"/>
<path d="M1225.31 197.288C1227.23 196.071 1229.04 194.237 1231.74 196.771L1225.5 198.118L1225.31 197.288Z" fill="white"/>
<path d="M1354.79 209.429L1356.55 221.543L1355.35 221.662L1354.79 209.429Z" fill="white"/>
<path d="M1356.45 34.8349C1358.31 33.8069 1358.95 30.6857 1361.79 31.3828L1362.39 32.4042C1360.58 33.4232 1358.75 34.4419 1356.93 35.4709L1356.45 34.8349Z" fill="white"/>
<defs>
<linearGradient id="paint0_linear" x1="1176.11" y1="183.524" x2="1337.95" y2="187.668" gradientUnits="userSpaceOnUse">
<stop stop-color="#C1E361"/>
<stop offset="1" stop-color="#D726B0" stop-opacity="0"/>
</linearGradient>
<linearGradient id="paint1_linear" x1="1177.44" y1="26.0196" x2="1183.19" y2="26.1668" gradientUnits="userSpaceOnUse">
<stop stop-color="#8E5151"/>
<stop offset="1" stop-color="white" stop-opacity="0"/>
</linearGradient>
</defs>
</svg>
